<?xml version="1.0" standalone="no"?>
<!DOCTYPE svg PUBLIC "-//W3C//DTD SVG 1.1//EN" "http://www.w3.org/Graphics/SVG/1.1/DTD/svg11.dtd" >
<svg xmlns="http://www.w3.org/2000/svg" xmlns:xlink="http://www.w3.org/1999/xlink" version="1.1">
<metadata>
Created by FontForge 20190801 at Tue Feb 26 16:01:33 2002
 By www-data
Brown is a trademark of Shinn Type Foundry. Brown is published by Shinn Type Foundry. Copyright(c) 2002 by Nick Shinn.
</metadata>
<defs>
<font id="BrownMediumRegular" horiz-adv-x="264" >
  <font-face 
    font-family="BrownMediumRegular"
    font-weight="400"
    font-stretch="normal"
    units-per-em="1000"
    panose-1="0 0 4 0 0 0 0 0 0 0"
    ascent="800"
    descent="-200"
    x-height="500"
    cap-height="694"
    bbox="-161 -197 1047 906"
    underline-thickness="100"
    underline-position="-185"
    unicode-range="U+0020-F002"
  />
<missing-glyph horiz-adv-x="500" 
d="M63 0v753h375v-753h-375zM125 63h250v628h-250v-628z" />
    <glyph glyph-name=".notdef" horiz-adv-x="500" 
d="M63 0v753h375v-753h-375zM125 63h250v628h-250v-628z" />
    <glyph glyph-name=".null" horiz-adv-x="0" 
 />
    <glyph glyph-name="nonmarkingreturn" horiz-adv-x="259" 
 />
    <glyph glyph-name="space" unicode=" " horiz-adv-x="259" 
 />
    <glyph glyph-name="exclam" unicode="!" horiz-adv-x="345" 
d="M243 695q0 -138 -28 -498q-13 2 -37 2t-44 -2q-31 398 -31 498q47 -4 74 -4t66 4zM236 0q-28 5 -57 5q-27 0 -66 -5q2 24 2 66q0 41 -2 59q28 -2 61 -2q34 0 62 2q-3 -31 -3 -66t3 -59z" />
    <glyph glyph-name="quotedbl" unicode="&#x22;" horiz-adv-x="453" 
d="M385 702q-11 -124 -20 -317q-18 3 -42 3q-23 0 -40 -3q-10 216 -20 317q30 -3 66 -3q34 0 56 3zM191 702q-14 -162 -21 -317q-17 3 -40 3q-24 0 -42 -3q-8 200 -20 317q27 -3 62 -3t61 3z" />
    <glyph glyph-name="numbersign" unicode="#" horiz-adv-x="577" 
d="M546 508q-9 -48 -7 -93q-60 3 -80 3q-18 0 -21 -15q-17 -97 -17 -111q0 -7 12 -7q16 0 78 3q-3 -15 -5 -47q-1 -28 0 -42q-61 4 -81 4q-17 0 -20 -18q-9 -60 -25 -189q-19 6 -46 6q-25 0 -46 -6q35 173 35 202q0 6 -17 6h-88q-15 0 -19 -2.5t-6 -15.5q-9 -71 -25 -190
q-17 6 -45 6q-27 0 -48 -6q35 168 35 200q0 8 -9 8q13 0 -86 -4q4 16 6 44q2 26 0 44q74 -4 84 -4q18 0 21 16q16 91 16 111q0 7 -10 7q-16 0 -83 -3q8 41 7 92q93 -3 80 -3q20 0 23 18q17 111 22 171q21 -3 48 -3t45 3q-32 -144 -32 -184q0 -6 10 -6h99q18 0 21 18
q6 39 23 172q16 -2 47 -2q30 0 44 2q-32 -153 -32 -184q0 -5 10 -5q-6 0 82 4zM356 414q0 5 -17 5h-92q-19 0 -22 -17q-17 -100 -17 -112q0 -7 10 -7h99q20 0 23 20q16 95 16 111z" />
    <glyph glyph-name="dollar" unicode="$" horiz-adv-x="551" 
d="M502 210q0 -163 -165 -198q-19 -4 -19 -15t2 -69q-27 4 -51 4t-46 -4q0 3 2 31q1 21 1 40q0 12 -13 14q-153 26 -165 177q-2 21 0 38q21 -4 54 -4q35 0 53 3q-2 -15 -1 -22q10 -108 126 -108q46 0 76 22q35 25 35 72q0 40 -21 64q-19 21 -62 39q-32 10 -97 31
q-154 54 -154 182q0 68 40.5 114t110.5 62q13 3 15.5 4.5t2.5 11.5q0 13 -1 30q-2 21 -2 31q26 -5 50 -5q25 0 46 5q-2 -62 -2 -61q0 -11 17 -14q74 -13 111.5 -61.5t35.5 -123.5q-21 5 -52 5q-32 0 -52 -5q0 7 -2 20q-12 86 -105 86q-42 0 -70 -19q-33 -23 -33 -65
q0 -54 65 -84q4 -2 94 -32q85 -28 125 -66q51 -49 51 -130z" />
    <glyph glyph-name="percent" unicode="%" horiz-adv-x="779" 
d="M744 180q0 -88 -36 -137q-39 -53 -114 -53t-114 52q-37 49 -37 135q0 90 37 141q39 55 113 55q151 0 151 -193zM636 699q-158 -269 -397 -704q-18 5 -40 5t-46 -5q138 234 397 704q15 -3 42 -3t44 3zM342 508q0 -87 -36 -136q-39 -53 -114 -53t-115 52q-37 49 -37 135
q0 90 36 140q39 55 114 55q76 0 115 -54q37 -50 37 -139zM652 178q0 71 -12.5 99.5t-46.5 28.5q-59 0 -59 -123q0 -124 60 -124q32 0 45 27.5t13 91.5zM250 506q0 70 -13 99t-46 29q-59 0 -59 -122q0 -124 60 -124q32 0 45 27t13 91z" />
    <glyph glyph-name="ampersand" unicode="&#x26;" horiz-adv-x="727" 
d="M659 -6q-27 -6 -63 -6q-86 0 -135 55q-13 15 -20 15q-3 0 -19 -13q-70 -57 -164 -57q-104 0 -159.5 54.5t-55.5 147.5q0 144 140 205q20 9 20 16l-9 16q-42 74 -42 128q0 69 48 110.5t132 41.5q88 0 136 -42q44 -39 44 -105q0 -61 -43 -102q-31 -29 -104 -63
q-19 -9 -19 -13q0 -2 15 -25q32 -49 71 -99q7 -11 14 -21q10 -14 14 -14q3 0 17 24q35 60 50 146q19 -3 56 -3q31 0 50 3q-29 -133 -94 -222q-9 -12 -9 -20t16 -23q35 -34 86 -34q11 0 26 5q-3 -16 -3 -45q0 -36 4 -60zM410 557q0 73 -75 73q-33 0 -52.5 -17.5t-19.5 -46.5
q0 -33 26 -87q12 -26 23 -26q3 0 18 8q80 44 80 96zM385 136q0 4 -14 22q-76 97 -109 154q-13 23 -20 23q-3 0 -21 -11q-69 -42 -69 -115q0 -59 31.5 -93t85.5 -34q57 0 97 34q19 16 19 20z" />
    <glyph glyph-name="quotesingle" unicode="'" horiz-adv-x="258" 
d="M191 702q-15 -173 -21 -317q-15 3 -38 3t-44 -3q-10 209 -20 317q33 -4 65 -4q29 0 58 4z" />
    <glyph glyph-name="parenleft" unicode="(" horiz-adv-x="371" 
d="M324 -119q-8 1 -51 1q-28 0 -37 -1q-142 199 -142 416q0 224 142 412q8 -1 38 -1q42 0 50 1q-116 -190 -116 -413q0 -221 116 -415z" />
    <glyph glyph-name="parenright" unicode=")" horiz-adv-x="371" 
d="M275 298q0 -219 -143 -417q-17 2 -37 2q-37 0 -50 -2q116 203 116 424q0 220 -118 404q11 -2 50 -2q24 0 40 2q142 -192 142 -411z" />
    <glyph glyph-name="asterisk" unicode="*" horiz-adv-x="422" 
d="M399 535q-36 -5 -105 -21q-31 -7 -31 -14q0 -2 15 -20q32 -39 77 -88q-43 -20 -72 -50q-31 59 -56 99q-13 21 -17 21q-3 0 -14 -18q-33 -53 -60 -102q-31 31 -72 52q37 36 82 90q12 14 12 17q0 6 -25 12q-73 17 -110 23q20 37 28 82q51 -26 97 -44l25 -10q10 0 10 13
q0 2 -1.5 9.5t-1.5 11.5q-4 49 -13 106q16 -2 44 -2q31 0 45 2q-8 -53 -12 -106q0 -4 -1.5 -11t-1.5 -10q0 -13 12 -13q1 0 22 8q27 10 98 44q4 -39 26 -81z" />
    <glyph glyph-name="plus" unicode="+" horiz-adv-x="580" 
d="M528 203q-85 3 -155 3h-25q-13 0 -13 -13v-21l4 -165q-24 5 -48 5q-25 0 -50 -5q1 69 3 163q1 23 1 22q0 14 -14 14h-11q-9 -1 -12 -1q-68 -1 -156 -2q3 17 3 47q0 31 -3 52q33 -1 156 -4q2 0 12 -1h12q13 0 13 15q0 -2 -1 24q-1 71 -3 161q26 -3 52 -3q27 0 46 3
q-1 -70 -3 -163q-1 -22 -1 -20q0 -17 13 -17h12q9 1 11 1l157 4q-3 -18 -3 -50q0 -30 3 -49z" />
    <glyph glyph-name="comma" unicode="," horiz-adv-x="271" 
d="M208 128q-16 -122 -73 -282q-14 2 -36 2q-21 0 -54 -3q34 144 44 283q44 -4 63 -4q21 0 56 4z" />
    <glyph glyph-name="hyphen" unicode="-" horiz-adv-x="295" 
d="M256 216q-50 3 -114 3q-61 0 -99 -3q4 22 4 49t-4 53q59 -4 113 -4q55 0 100 4q-3 -18 -3 -51t3 -51z" />
    <glyph glyph-name="hyphen" unicode="&#x2010;" horiz-adv-x="295" 
d="M256 216q-50 3 -114 3q-61 0 -99 -3q4 22 4 49t-4 53q59 -4 113 -4q55 0 100 4q-3 -18 -3 -51t3 -51z" />
    <glyph glyph-name="period" unicode="." horiz-adv-x="271" 
d="M199 0q-28 5 -57 5q-27 0 -67 -5q2 26 2 65q0 40 -2 63q31 -3 61 -3q31 0 63 3q-3 -26 -3 -63q0 -36 3 -65z" />
    <glyph glyph-name="slash" unicode="/" horiz-adv-x="413" 
d="M389 709q-147 -380 -292 -794q-22 4 -48 4t-51 -4q159 410 292 793q18 -3 50 -3q30 0 49 4z" />
    <glyph glyph-name="zero" unicode="0" horiz-adv-x="546" 
d="M507 335q0 -166 -48 -249q-56 -97 -183 -97q-129 0 -183 94q-46 81 -46 255q0 164 40 248q55 114 191 114q137 0 190 -113q39 -83 39 -252zM384 345q0 131 -22 198.5t-84 67.5q-65 0 -86.5 -71.5t-21.5 -195.5q0 -132 24 -201q23 -65 83 -65q65 0 87 71q20 64 20 196z
" />
    <glyph glyph-name="one" unicode="1" horiz-adv-x="352" 
d="M280 0q-27 6 -59 6q-33 0 -69 -6q4 141 4 302v211q0 13 -7 15q-3 1 -12 -5t-14 -7q-57 -15 -99 -21q3 16 3 44q0 27 -3 41q131 25 172 114q17 -4 40 -4t44 4q-4 -177 -4 -348q0 -176 4 -346z" />
    <glyph glyph-name="two" unicode="2" horiz-adv-x="546" 
d="M493 0q-92 4 -221 4q-130 0 -222 -4v11q0 26 -2 68q0 3 -2 28q63 51 180 157q73 74 102 115q43 62 43 117q0 111 -103 111t-103 -118q0 -17 1 -34q-27 5 -57 5q-20 0 -57 -5q-1 21 -1 27q0 105 63 163q59 56 159 56t160 -53.5t60 -149.5q0 -87 -64 -169
q-49 -63 -215 -196l-24 -16q-14 -8 -14 -13q0 -6 12 -6q4 0 20 2t22 2q148 0 263 5q-4 -26 -4 -58q0 -26 4 -49z" />
    <glyph glyph-name="three" unicode="3" horiz-adv-x="546" 
d="M507 192q0 -95 -67.5 -149t-178.5 -54q-94 0 -152 44q-61 47 -66 133q-1 16 -1 36q33 -5 63 -5t54 5v-14q6 -108 106 -108q114 0 114 108q0 122 -123 122q-11 0 -35 -1t-38 -1q4 25 4 44q0 17 -4 42q14 0 39.5 -1t36.5 -1q110 0 110 109q0 107 -101 107q-100 0 -102 -112
q-35 6 -60 6q-27 0 -54 -6q0 21 1 35q8 81 70 127q58 43 148 43q102 0 162 -54q57 -51 57 -137q0 -94 -84 -139q-4 -2 -24 -7q-14 -3 -14 -9t16 -9q22 -4 24 -5q99 -42 99 -149z" />
    <glyph glyph-name="four" unicode="4" horiz-adv-x="546" 
d="M517 152q-47 2 -75 2q-22 0 -22 -22q0 -42 3 -132q-25 4 -58 4q-34 0 -60 -4q3 74 3 132q0 15 -4.5 19t-19.5 4q-150 0 -255 -3q2 15 2 45q0 23 -2 39q168 297 246 456q29 -4 76 -4q41 0 71 4q-3 -153 -3 -426q0 -22 20 -22q9 0 78 2q-3 -21 -3 -44q0 -31 3 -50zM311 552
q0 8 -5 8q-6 0 -16 -22q-6 -13 -19 -39q-41 -78 -125 -233q-10 -18 -10 -17q0 -5 6 -6q-8 1 15 1h130q22 0 22 22v89q0 17 -1 71v64q0 25 1 40q2 30 2 22z" />
    <glyph glyph-name="five" unicode="5" horiz-adv-x="530" 
d="M484 236q0 -113 -57 -178q-60 -68 -172 -68q-207 0 -214 195v22q26 -5 58 -5q28 0 55 5q-1 -16 -1 -20q4 -107 100 -107q61 0 88 41q23 36 23 111q0 139 -110 139q-74 0 -104 -53q-27 10 -71 11h-25q16 111 16 327v36q63 -3 164 -3q99 0 220 3q-4 -23 -4 -57q0 -22 3 -46
q-98 3 -257 3q-15 0 -20.5 -4.5t-6.5 -19.5q0 -46 -6 -119q-5 -26 -5 -24q0 -7 6 -7q4 0 20 12q42 32 104 32q96 0 146 -59.5t50 -166.5z" />
    <glyph glyph-name="six" unicode="6" horiz-adv-x="546" 
d="M503 228q0 -113 -57 -176t-164 -63q-234 0 -234 328q0 172 42 262q58 123 200 123q191 0 199 -164q1 -14 0 -32q-28 5 -57 5q-37 0 -62 -5v16q-3 47 -22 67.5t-63 20.5q-52 0 -77 -30t-33 -108q-2 -18 -5 -52q-1 -18 -4 -33.5t-3 -20.5t5 -5q2 0 8 8q12 18 41 47
q34 23 96 23q87 0 138.5 -57.5t51.5 -153.5zM385 215q0 136 -101 136q-65 0 -100 -53q-4 -7 -10 -24q-1 -11 0 -35q7 -159 111 -159q100 0 100 135z" />
    <glyph glyph-name="seven" unicode="7" horiz-adv-x="505" 
d="M479 622q-1 -5 -1 -15q-205 -266 -214 -607q-37 4 -74 4q-34 0 -62 -4q16 312 209 564q2 3 13 12.5t11 12.5q0 5 -9 5q-4 0 -17.5 -2t-19.5 -2h-80q-153 0 -214 -4q3 18 3 55q0 28 -2 51q103 -2 270 -2q138 0 186 2q-2 -12 -2 -24q0 -6 1.5 -22.5t1.5 -23.5z" />
    <glyph glyph-name="eight" unicode="8" horiz-adv-x="546" 
d="M505 186q0 -92 -59 -143q-61 -54 -172 -54q-110 0 -170 53t-60 144q0 111 94 157q5 2 25 6q14 3 14 8t-14 9q-18 6 -23 9q-77 48 -77 142q0 83 56 133.5t156 50.5q98 0 154.5 -50t56.5 -133q0 -94 -76 -142q-4 -2 -23 -8q-15 -5 -15 -10t14 -9q21 -4 24 -6
q95 -47 95 -157zM369 508q0 104 -94 104q-95 0 -95 -97q0 -112 94 -112q95 0 95 105zM387 189q0 124 -112 124q-113 0 -113 -125q0 -108 111 -108q114 0 114 109z" />
    <glyph glyph-name="nine" unicode="9" horiz-adv-x="546" 
d="M499 374q0 -171 -42 -262q-58 -123 -201 -123q-190 0 -199 161q-1 11 1 35q28 -5 56 -5q37 0 62 5v-14q2 -48 21.5 -69t64.5 -21q52 0 77 31.5t33 112.5q3 26 4 45.5t4 34.5t3 20t-5 5q-2 0 -10 -10q-11 -17 -39 -45q-34 -23 -96 -23q-87 0 -138 57.5t-51 153.5
q0 113 57 176t164 63q234 0 234 -328zM374 432q0 7 -2 34q-11 145 -111 145q-99 0 -99 -135q0 -136 101 -136q62 0 99 53q12 17 12 39z" />
    <glyph glyph-name="colon" unicode=":" horiz-adv-x="271" 
d="M199 354q-25 4 -58 4q-32 0 -66 -4q2 19 2 61q0 44 -2 67q33 -2 62 -2q27 0 62 2q-3 -32 -3 -69q0 -36 3 -59zM199 0q-28 5 -58 5q-27 0 -66 -5q2 17 2 62q0 46 -2 66q24 -2 62 -2t62 2q-3 -25 -3 -62t3 -66z" />
    <glyph glyph-name="semicolon" unicode=";" horiz-adv-x="271" 
d="M198 354q-30 4 -64 4q-31 0 -59 -4q2 23 2 67q0 42 -2 61q28 -2 62 -2q33 0 61 2q-2 -24 -2 -69q0 -42 2 -59zM208 125q-16 -122 -73 -282q-14 2 -36 2q-32 0 -54 -2q34 144 44 282q33 -3 63 -3t56 3z" />
    <glyph glyph-name="less" unicode="&#x3c;" horiz-adv-x="580" 
d="M530 4q-212 106 -481 215q3 22 3 41q0 18 -3 43q194 75 481 214q-4 -31 -4 -55q0 -25 4 -46q-114 -44 -304 -132l-33 -10q-19 -5 -19 -14q0 -8 19 -13q31 -10 33 -11q178 -84 304 -131q-4 -22 -4 -50q0 -27 4 -51z" />
    <glyph glyph-name="equal" unicode="=" horiz-adv-x="580" 
d="M528 307q-114 3 -258 3q-137 0 -218 -3q3 19 3 44q0 28 -3 52q151 -4 255 -4q109 0 221 4q-2 -16 -2 -48q0 -31 2 -48zM528 105q-123 3 -257 3q-133 0 -219 -3q4 25 4 51q0 23 -4 45q73 -3 220 -3q154 0 256 3q-3 -27 -3 -52q0 -26 3 -44z" />
    <glyph glyph-name="greater" unicode="&#x3e;" horiz-adv-x="580" 
d="M530 217q-230 -92 -481 -213q4 29 4 53q0 26 -4 48q119 46 299 129q1 0 36 11q21 6 21 15t-20 15q-36 12 -37 12q-170 78 -299 129q4 20 4 45q0 24 -4 56q230 -110 481 -216q-3 -25 -3 -43q0 -19 3 -41z" />
    <glyph glyph-name="question" unicode="?" horiz-adv-x="491" 
d="M455 513q0 -69 -30 -114q-25 -37 -82 -73q-37 -23 -51 -42q-18 -23 -19 -59v-27q-25 4 -52 4q-25 0 -51 -4q-1 30 -1 34q1 78 44 120l80 58q42 35 42 97q0 57 -21.5 82t-69.5 25q-45 0 -65.5 -18.5t-24.5 -61.5q-1 -10 0 -27q-23 3 -56 3q-31 0 -57 -4q-1 16 1 37
q6 75 58.5 117t147.5 42q96 0 150 -46q57 -49 57 -143zM284 0q-33 5 -61 5q-29 0 -63 -5q4 30 4 59q0 28 -4 66q31 -3 66 -3t58 3q-4 -33 -4 -65q0 -33 4 -60z" />
    <glyph glyph-name="at" unicode="@" horiz-adv-x="796" 
d="M735 387q0 -107 -56 -172q-52 -61 -131 -61q-56 0 -82 36q-2 3 -5 16q-2 10 -7 10q-3 0 -9 -9q-7 -12 -9 -14q-34 -37 -80 -37q-49 0 -79.5 42t-30.5 110q0 89 45.5 156t111.5 67q42 0 67 -29q4 -7 12 -14q3 -1 3 20q0 1 1 9t1 9q17 -2 40 -2t36 2q-21 -114 -35 -239
q-3 -27 -3 -25q0 -44 40 -44q42 0 70.5 43t28.5 115q0 123 -71 197q-67 70 -171 70q-121 0 -198 -89q-73 -85 -73 -210q0 -124 74 -206q76 -87 199 -87q95 0 186 57q13 -22 38 -38q-105 -84 -234 -84q-157 0 -254 105q-93 101 -93 252q0 154 94 256q99 108 260 108
q135 0 222 -84q92 -89 92 -236zM467 404q2 28 -8 43q-14 21 -43 21q-38 0 -61 -53q-20 -46 -20 -106q0 -80 49 -80q38 0 59 54q11 27 18 76q3 15 6 45z" />
    <glyph glyph-name="A" unicode="A" horiz-adv-x="599" 
d="M582 0q-28 5 -62 5q-31 0 -67 -5q-10 47 -37 134q-5 15 -23 16q-73 3 -109 3q-11 0 -84 -3q-24 -1 -29 -16q-19 -61 -35 -134q-32 5 -58 5q-32 0 -61 -5q53 176 105 352q70 234 96 343q42 -4 87 -4q39 0 75 4q27 -116 202 -695zM388 249q0 -5 -6 17q-26 96 -73 266
q-3 10 -8 41q-2 14 -7 14t-10 -24q-3 -16 -6 -31l-36 -142q-21 -87 -43 -139q-1 -3 -1 -5q1 -4 10 -4q14 0 43.5 1.5t45.5 1.5q14 0 41.5 -1.5t40.5 -1.5q9 0 9 7z" />
    <glyph glyph-name="B" unicode="B" horiz-adv-x="589" 
d="M541 186q0 -105 -73 -153q-50 -33 -127 -33q-28 0 -79.5 1.5t-79.5 1.5q-61 0 -106 -3q3 161 3 357q0 194 -3 337q44 -3 88 -3q29 0 81.5 1.5t81.5 1.5q74 0 121 -29q70 -44 70 -146q0 -90 -60 -132q-19 -13 -44 -20.5t-25 -8.5t25 -7q30 -7 57 -25q70 -47 70 -140z
M395 503q0 96 -105 96q-36 0 -74 -1q-13 0 -17 -4t-5 -20q-1 -26 -1 -133v-21q0 -20 18 -20q10 0 38.5 1t33.5 1q112 2 112 101zM414 196q0 112 -126 114q-54 1 -79 1q-17 0 -17 -21v-18q0 -102 2 -151q1 -29 34 -30h69q117 0 117 105z" />
    <glyph glyph-name="C" unicode="C" horiz-adv-x="583" 
d="M541 227q0 -26 -6 -61q-31 -178 -228 -178q-256 0 -256 344q0 371 258 371q194 0 224 -171q7 -39 7 -84q-28 4 -58 4q-37 0 -64 -3q0 7 -1 18q-8 139 -107 139q-70 0 -101 -55q-35 -62 -35 -217q0 -121 23 -176q31 -73 110 -73q113 0 116 161q36 -8 77 -8q15 0 40 4
q0 -1 1 -8v-7z" />
    <glyph glyph-name="D" unicode="D" horiz-adv-x="621" 
d="M571 342q0 -174 -71 -261q-65 -81 -185 -81h-20q-18 0 -59.5 1.5t-62.5 1.5q-64 0 -98 -3q3 153 3 341q0 177 -3 353q37 -2 81 -2q23 0 64.5 1t57.5 1h15q278 0 278 -352zM444 342q0 123 -32 182q-41 73 -141 75h-49q-23 0 -24 -22q-2 -66 -2 -225q0 -127 2 -218
q1 -24 7.5 -31t32.5 -8h32q98 2 139 69q35 57 35 178z" />
    <glyph glyph-name="E" unicode="E" horiz-adv-x="522" 
d="M461 0q-69 4 -182 4q-111 0 -204 -4q3 138 3 327q0 188 -3 366q85 -3 183 -3q102 0 193 3q-3 -33 -3 -53q0 -26 3 -52q-104 4 -226 4q-16 0 -21 -2.5t-6 -14.5q-4 -45 -4 -138v-22q0 -18 23 -18h18q83 0 205 4q-2 -25 -2 -56q0 -32 2 -50q-76 4 -172 4h-31q-18 -1 -21 -1
q-22 0 -22 -19v-18q0 -74 2 -139q0 -13 4.5 -16t20.5 -3q133 0 240 5q-2 -25 -2 -57q0 -33 2 -51z" />
    <glyph glyph-name="F" unicode="F" horiz-adv-x="490" 
d="M450 588q-125 5 -204 5h-24q-16 0 -20.5 -3.5t-5.5 -17.5q-2 -52 -2 -125v-32q0 -13 6 -17q3 -2 18 -2q62 0 224 5q-3 -31 -3 -57q0 -16 4 -49q-110 5 -218 5q-21 0 -26 -5t-5 -19q0 -116 4 -276q-21 3 -60 3q-38 0 -63 -3q3 138 3 323q0 188 -3 370q94 -3 203 -3
q108 0 172 3q-2 -32 -2 -52q0 -27 2 -53z" />
    <glyph glyph-name="G" unicode="G" horiz-adv-x="601" 
d="M547 79q-88 -92 -241 -92q-256 0 -256 342q0 375 264 375q185 0 221 -159q7 -32 9 -65q0 -8 1 -27q-26 3 -61 3q-37 0 -61 -3q-8 154 -112 154q-72 0 -105.5 -64t-33.5 -212q0 -248 141 -248q63 0 97 31q15 14 19 25.5t4 44.5q0 38 -4.5 49.5t-23.5 11.5q-53 0 -87 -3
q3 24 3 47q0 21 -3 47q52 -3 118 -3q60 0 111 3q-3 -42 -3 -111q0 -56 3 -146z" />
    <glyph glyph-name="H" unicode="H" horiz-adv-x="634" 
d="M558 0q-32 5 -63 5q-28 0 -59 -5q2 178 2 270v14q0 18 -20 19q-28 1 -104 1q-42 0 -100 -2q-17 -1 -17 -18v-15q0 -158 3 -269q-27 5 -58 5q-29 0 -66 -5q3 162 3 349q0 188 -3 345q35 -3 64 -3q30 0 60 3q-4 -129 -4 -261v-12q0 -19 18 -20q60 -2 104 -2q37 0 103 2
q18 1 18 20v14q0 156 -4 259q26 -3 61 -3q30 0 62 3q-3 -214 -3 -357q0 -158 3 -337z" />
    <glyph glyph-name="I" unicode="I" horiz-adv-x="277" 
d="M201 0q-28 5 -59 5q-30 0 -66 -5q2 108 2 326q0 215 -2 368q30 -3 62 -3q28 0 63 3l-2 -363q0 -185 2 -331z" />
    <glyph glyph-name="J" unicode="J" horiz-adv-x="520" 
d="M446 195q0 -94 -40 -145q-48 -61 -171 -61q-199 0 -199 204q0 26 3 46q25 -3 56 -3q34 0 58 3q-4 -28 -4 -44q0 -109 83 -109q52 0 70.5 27.5t20.5 99.5q2 87 2 222q0 113 -2 259q35 -4 61 -4q33 0 62 4q-2 -86 -2 -237q0 -45 1 -133.5t1 -128.5z" />
    <glyph glyph-name="K" unicode="K" horiz-adv-x="584" 
d="M565 0q-31 4 -78 4q-37 0 -70 -4q-38 62 -167 242q-13 18 -38 55q-3 6 -6 13.5t-6 7.5q-6 0 -6 -9q0 -10 1 -44t1 -38l3 -227q-31 5 -60 5q-31 0 -63 -5q4 167 4 347q0 133 -4 347q40 -3 63 -3q22 0 60 3l-2 -250q0 -3 -1 -22.5t-1 -25.5q0 -11 4 -11q2 0 9 11
q13 20 45 61q15 20 161 237q42 -3 66 -3q26 0 65 3q-71 -103 -222 -303q-16 -19 -16 -26q0 -3 14 -22q12 -14 34 -44q72 -101 210 -299z" />
    <glyph glyph-name="L" unicode="L" horiz-adv-x="459" 
d="M429 0q-78 4 -180 4q-97 0 -174 -4q3 180 3 343q0 191 -3 351q37 -3 64 -3q31 0 60 3q-4 -150 -4 -336q0 -59 2 -233q0 -22 20 -22h17q110 0 195 5q-4 -28 -4 -53q0 -21 4 -55z" />
    <glyph glyph-name="M" unicode="M" horiz-adv-x="832" 
d="M755 0q-29 5 -57 5q-26 0 -64 -5q3 400 3 420q0 11 3.5 68t3.5 62q0 10 -4 10q-6 0 -15 -34l-21 -83q-39 -126 -116 -374q-12 -41 -20 -69q-19 4 -53 4q-39 0 -64 -4q-6 25 -18 68q-47 144 -116 374q-17 64 -20 83q-6 35 -13 35q-5 0 -5 -12q0 -22 3 -78q3 -59 3 -78
l3 -392q-32 5 -61 5t-52 -5q2 105 2 331q0 234 -2 363q51 -4 93 -4t80 4q30 -109 150 -489q6 -20 10 -45q2 -15 6 -15t6 15q4 24 11 46q101 305 147 488q50 -4 96 -4q41 0 80 4l-4 -324q0 -74 5 -370z" />
    <glyph glyph-name="N" unicode="N" horiz-adv-x="670" 
d="M595 694q-2 -114 -2 -358v-337q-34 6 -77 6q-40 0 -76 -6l-218 481q-4 9 -23 59q-12 32 -17 32q-4 0 -4 -18q0 4 4 -25t4 -63v-139q0 -94 4 -327q-29 6 -54 6q-22 0 -61 -6q3 184 3 327t-3 368q37 -3 87 -3q45 0 74 3q137 -303 210 -459q6 -12 30 -77q4 -12 14 -25
q3 0 3 12q0 1 -4 33.5t-4 54.5v99q0 80 -4 362q33 -4 57 -4q26 0 57 4z" />
    <glyph glyph-name="O" unicode="O" horiz-adv-x="620" 
d="M571 342q0 -184 -65 -269.5t-195 -85.5q-261 0 -261 358q0 359 261 359q131 0 195.5 -88t64.5 -274zM448 340q0 269 -137 269q-71 0 -103 -58q-35 -63 -35 -212q0 -257 137 -257q138 0 138 258z" />
    <glyph glyph-name="P" unicode="P" horiz-adv-x="560" 
d="M522 482q0 -110 -63.5 -165t-176.5 -55h-35q-24 1 -35 1q-16 0 -16 -17v-21q0 -93 4 -225q-39 5 -63 5q-26 0 -61 -5q2 135 2 329q0 227 -2 365q42 -2 81 -2q25 0 69 1t69 1q227 0 227 -212zM399 481q0 117 -121 117q-34 0 -62 -1q-17 -1 -18 -17q-2 -50 -2 -145v-57
q0 -19 15 -19q31 -1 44 -1q144 0 144 123z" />
    <glyph glyph-name="Q" unicode="Q" horiz-adv-x="620" 
d="M571 342q0 -142 -29 -203q-34 -73 -144 -133q-8 -4 -8 -17q0 -41 81 -41q18 0 50 5q-4 -22 -4 -56q0 -31 4 -54q-26 -6 -54 -6q-165 0 -179 121q0 3 -1 19q-1 12 -11 13.5t-28 4.5q-198 40 -198 349q0 360 262 360q128 0 191 -83q68 -89 68 -279zM447 343q0 131 -29 195
q-33 72 -107 72t-107 -67q-30 -63 -30 -199q0 -128 29 -191q33 -71 107 -71q76 0 108 70q29 61 29 191z" />
    <glyph glyph-name="R" unicode="R" horiz-adv-x="581" 
d="M541 0q-32 4 -70 4q-35 0 -63 -4q-29 150 -59 218q-15 35 -32 48q-22 18 -65 18h-33q-18 0 -22 -8q-2 -4 -2 -14v-21q0 -160 4 -241q-25 4 -56 4q-33 0 -67 -4q1 74 1 349l-1 345q39 -2 105 -2q24 0 66 1t66 1q105 0 162 -59q52 -53 52 -140q0 -57 -27 -101
q-29 -47 -77 -62q-10 -2 -20 -3q-15 -3 -15 -7t9 -6q15 -3 30 -15q28 -21 51 -84q33 -90 63 -217zM403 491q0 107 -127 107q-37 0 -56 -1q-22 -1 -23 -20q-2 -57 -2 -183q0 -20 26 -20h20q40 0 66 4q96 15 96 113z" />
    <glyph glyph-name="S" unicode="S" horiz-adv-x="571" 
d="M525 193q0 -97 -66 -152t-174 -55q-100 0 -161 47q-65 50 -73 143q-3 32 -2 57q22 -4 56 -4q35 0 62 5q-1 -24 0 -33q11 -117 128 -117q110 0 110 94q0 62 -77 98q-56 22 -113 43q-67 27 -102 61q-51 50 -51 132q0 81 60 136q63 59 166 59q90 0 150 -42q64 -44 71 -123
q2 -28 2 -42q-1 -16 -1 -20q-21 5 -51 5q-37 0 -63 -6q0 11 -2 35q-3 45 -33.5 70t-76.5 25q-104 0 -104 -91q0 -50 75 -86l112 -46q68 -27 104 -61q54 -50 54 -132z" />
    <glyph glyph-name="T" unicode="T" horiz-adv-x="496" 
d="M477 587q-85 3 -139 3h-16q-16 0 -16 -17v-119q0 -242 4 -454q-34 5 -61 5q-35 0 -64 -5q4 219 4 454q0 38 -1 120q0 16 -17 16h-17q-38 0 -135 -3q3 21 3 52q0 33 -3 55q138 -3 234 -3q119 0 224 3q-4 -30 -4 -56q0 -25 4 -51z" />
    <glyph glyph-name="U" unicode="U" horiz-adv-x="616" 
d="M542 224q0 -237 -235 -237q-231 0 -231 232v7q0 42 1 128.5t1 132.5q0 109 -2 207q34 -4 65 -4q33 0 59 4q-3 -102 -3 -260q0 -73 2 -213q2 -132 111 -132q60 0 85 34q24 31 25 102q2 108 2 225q0 153 -3 244q31 -4 62 -4q36 0 61 4q-2 -74 -2 -184q0 -47 1 -140.5
t1 -140.5v-5z" />
    <glyph glyph-name="V" unicode="V" horiz-adv-x="569" 
d="M559 694q-83 -272 -208 -694q-32 3 -70 3q-43 0 -66 -2q-26 98 -205 693q34 -4 64 -4q33 0 67 4q39 -167 77 -294q28 -95 56 -189q3 -22 8 -51q2 -8 7 -8t6 8q3 21 8 50q46 155 134 484q34 -4 61 -4q30 0 61 4z" />
    <glyph glyph-name="W" unicode="W" horiz-adv-x="870" 
d="M858 694l-156 -694q-28 4 -64 4q-38 0 -80 -4q-22 117 -95 409q-9 35 -16 96q-3 28 -8 28q-6 0 -9 -29q-6 -49 -17 -95q-71 -289 -96 -409q-32 4 -71 4q-35 0 -70 -4q-108 477 -163 694q35 -4 68 -4q27 0 57 4q33 -164 96 -459l12 -69q2 -11 6 -11q3 0 5 11q8 43 14 69
q43 170 107 459q28 -4 67 -4q40 0 62 4q27 -138 109 -461q5 -22 14 -65q2 -11 5 -11t4 11q3 22 10 65q74 335 96 461q28 -4 55 -4q24 0 58 4z" />
    <glyph glyph-name="X" unicode="X" horiz-adv-x="551" 
d="M538 0q-31 4 -76 4q-36 0 -65 -4q-33 62 -102 199q-10 20 -15.5 35t-8.5 15q-2 0 -7 -12.5t-16 -36.5q-63 -119 -108 -200q-28 5 -59 5q-30 0 -69 -5q68 116 188 329q8 15 8 22q0 6 -6 18q-59 106 -179 325q42 -3 77 -3q38 0 62 3q35 -65 97 -185q11 -22 15 -33t8 -11
q3 0 7 11q8 22 16 36q44 80 98 182q27 -4 57 -4t68 4q-62 -108 -175 -308q-8 -15 -8 -24q0 -7 8 -22q43 -81 185 -340z" />
    <glyph glyph-name="Y" unicode="Y" horiz-adv-x="557" 
d="M548 694q-141 -273 -192 -384q-20 -43 -20 -97q0 -42 3 -213q-25 4 -59 4q-33 0 -64 -4l3 211q0 54 -20 98q-71 155 -189 385q36 -4 68 -4q26 0 65 4q41 -94 118 -246q6 -12 14 -42q3 -13 8 -13q4 0 8 13q6 20 18 43q72 133 117 245q36 -4 57 -4q17 0 65 4z" />
    <glyph glyph-name="Z" unicode="Z" horiz-adv-x="494" 
d="M464 0q-156 4 -260 4q-122 0 -175 -4q2 19 2 51q0 29 -2 45q209 353 255 440q8 15 29 39q10 11 10 17t-18 6h-40q-55 0 -228 -6q2 16 2 48q0 37 -2 54q167 -3 238 -3q72 0 185 3q0 -5 1 -20.5t1 -24.5q0 -5 -1 -21.5t-1 -21.5q-236 -399 -281 -483q-2 -4 -8.5 -11.5
t-6.5 -11.5q0 -3 5 -4l28 2q101 2 267 6q-3 -22 -3 -51q0 -32 3 -53z" />
    <glyph glyph-name="bracketleft" unicode="[" horiz-adv-x="371" 
d="M312 -119q-52 2 -96 2t-106 -2q2 122 2 406q0 283 -2 426q43 -2 105 -2q60 0 95 2q-1 -11 -1 -35q0 -22 1 -31q-67 3 -82 3t-15 -17q-2 -136 -2 -343q0 -208 2 -327q0 -17 16 -17q68 0 83 1q-3 -17 -3 -30t3 -36z" />
    <glyph glyph-name="backslash" unicode="\" horiz-adv-x="413" 
d="M391 -85q-22 4 -46 4q-22 0 -52 -4q-157 444 -291 795q25 -3 53 -3q29 0 45 2q148 -426 291 -794z" />
    <glyph glyph-name="bracketright" unicode="]" horiz-adv-x="371" 
d="M256 -119q-43 2 -105 2q-60 0 -95 -2q1 11 1 35q0 23 -1 32q67 -3 82 -3t15 16q2 136 2 350q0 202 -2 321q0 17 -16 17q-53 0 -83 -2q3 17 3 31q0 12 -3 35q52 -2 96 -2t106 2q-2 -122 -2 -400q0 -289 2 -432z" />
    <glyph glyph-name="asciicircum" unicode="^" horiz-adv-x="575" 
d="M539 318q-23 3 -49 3t-52 -3q-67 132 -134 244q-1 2 -6 17q-4 10 -9 10t-9 -9.5t-8 -18.5q-78 -134 -134 -243q-24 3 -52 3q-26 0 -44 -3q112 185 198 361q20 -2 52 -2q30 0 47 2q76 -151 200 -361z" />
    <glyph glyph-name="underscore" unicode="_" horiz-adv-x="552" 
d="M547 -126h-542v58h542v-58z" />
    <glyph glyph-name="grave" unicode="`" 
d="M214 563q-16 2 -43 2q-19 0 -39 -2q-29 37 -122 146q27 2 66 2q38 0 71 -2q53 -121 67 -146z" />
    <glyph glyph-name="a" unicode="a" horiz-adv-x="520" 
d="M463 0q-16 1 -36 1q-52 0 -83 -6q-6 33 -6 54q0 16 -4 16q-1 0 -11 -18q-34 -59 -121 -59q-73 0 -113.5 39.5t-40.5 108.5q0 100 87 137q45 19 169 29q29 2 29 38v12q0 80 -78 80q-79 0 -82 -61q0 5 1 -19q-19 3 -42 3q-32 0 -62 -6q0 4 -1 11.5t-1 9.5q0 71 55 109
q51 35 137 35q160 0 181 -108q8 -41 8 -112v-157q1 -74 14 -137zM336 238q0 7 -5 7q3 0 -8.5 -2.5t-39.5 -5.5q-38 -4 -54 -8q-68 -18 -68 -88q0 -59 63 -66q10 -1 12 -1q79 0 93 71q5 26 5 61q0 4 1 15t1 17z" />
    <glyph glyph-name="b" unicode="b" horiz-adv-x="546" 
d="M498 247q0 -120 -45 -186q-47 -70 -140 -70q-60 0 -95 20q-15 9 -31 31q-1 1 -7 16q-5 11 -9 11q-3 0 -4 -6q-3 -19 -4 -65q-20 4 -55 4q-18 0 -40 -2q6 45 7 92q1 73 1 262q0 224 -3 355q28 -4 57 -4q32 0 60 4l-3 -240q-1 -9 -1 -18q0 -8 3 -8t13 18q16 30 55 44
q24 9 57 9q184 0 184 -267zM379 253q0 95 -23 135.5t-75 40.5q-34 0 -58 -22.5t-30 -58.5q-4 -24 -4 -91q0 -59 5 -88q15 -90 92 -90q93 0 93 174z" />
    <glyph glyph-name="c" unicode="c" horiz-adv-x="482" 
d="M446 323q-32 4 -54 4q-31 0 -61 -6l-1 17q-5 90 -72 90q-49 0 -70 -42.5t-21 -141.5q0 -170 89 -170q78 0 79 111q32 -9 67 -9q22 0 41 4v-17q-13 -177 -187 -177q-207 0 -207 256q0 273 213 273q173 0 183 -174z" />
    <glyph glyph-name="d" unicode="d" horiz-adv-x="545" 
d="M482 0q-8 1 -34 1q-48 0 -80 -5q-1 15 -2 61q0 12 -5 12q-3 0 -8 -10t-20 -30q-42 -38 -111 -38q-174 0 -174 248q0 272 184 272q39 0 68 -12q33 -14 47 -44q7 -15 12 -15q2 0 2 6q0 9 -2 27q-1 8 -1 36q-1 158 -3 200q28 -4 61 -4q31 0 58 4q-3 -121 -3 -263
q0 -15 1 -216q1 -109 10 -230zM359 269q0 85 -15 111q-26 46 -79 46q-98 0 -98 -176q0 -172 93 -172q45 0 73 37q20 26 24 72q2 25 2 82z" />
    <glyph glyph-name="e" unicode="e" horiz-adv-x="505" 
d="M462 148q-9 -71 -55 -114q-51 -48 -145 -48q-218 0 -218 252q0 127 58 202.5t162 75.5q96 0 145.5 -65t49.5 -183q0 -21 -2 -41q-45 5 -160 5h-118q-14 0 -17.5 -3.5t-3.5 -16.5q0 -61 26 -98q29 -40 80 -40q83 0 95 80q39 -6 74 -7q11 0 29 1zM348 327q0 8 -1 15
q-13 89 -90 89q-41 0 -68 -32.5t-33 -79.5v-9q1 -11 14 -11q1 0 66 1q40 0 100 4q12 3 12 23z" />
    <glyph glyph-name="f" unicode="f" horiz-adv-x="336" 
d="M321 660q0 -30 -3 -50q-27 8 -47 8q-41 0 -53 -37q-6 -18 -6 -71q0 -13 11 -13q50 0 91 3q-3 -26 -3 -45q0 -20 3 -42q-63 2 -91 2q-11 0 -11 -14q0 -34 2 -203l2 -198q-27 5 -58 5t-59 -5q2 82 2 215q0 45 -1 191q0 9 -11 9q-32 0 -68 -2q4 29 4 44q0 17 -4 43
q38 -3 67 -3q11 0 11 13v23q-1 17 -1 19q0 82 34.5 121.5t108.5 39.5q53 0 77 -13q3 -16 3 -40z" />
    <glyph glyph-name="g" unicode="g" horiz-adv-x="546" 
d="M481 503q-11 -71 -11 -283q0 -23 1 -110v-110q0 -104 -51.5 -150.5t-159.5 -46.5q-98 0 -142 35q-40 32 -40 99q27 -4 57 -4t53 4q0 -56 75 -56q91 0 93 95q0 11 2 51q0 8 2.5 18t2.5 13q0 6 -5 6t-12 -11q-10 -16 -11 -17q-36 -39 -101 -39q-186 0 -186 259
q0 117 47 183q49 70 139 70q83 0 118 -51q4 -9 8 -19t11 -10q3 0 4 10q3 32 3 63q18 -4 46 -4q24 0 57 5zM357 251q0 59 -5 83q-19 89 -90 89q-95 0 -95 -167q0 -98 25 -139q22 -36 72 -36q76 0 89 74q4 23 4 96z" />
    <glyph glyph-name="h" unicode="h" horiz-adv-x="539" 
d="M470 364l-1 -11q-1 -11 -1 -163q0 -133 1 -190q-31 5 -61 5q-31 0 -59 -5q2 81 3 185q1 81 0 124q0 10 -2 30q-4 40 -14 57q-15 25 -50 25q-45 0 -71.5 -37t-26.5 -96q0 -40 3 -288q-25 5 -56 5q-29 0 -63 -5q3 124 3 350q0 232 -3 359q39 -4 59 -4q18 0 59 4l-2 -200
q0 -35 -2 -46q-3 -19 -3 -33q0 -12 1 -13l2 -2q5 1 12 17q11 26 34 46q40 35 103 35q95 0 124 -80q14 -38 11 -69z" />
    <glyph glyph-name="i" unicode="i" 
d="M192 590q-24 4 -57 4q-32 0 -63 -4q3 27 3 61q0 33 -3 58q30 -2 64 -2q33 0 56 2q-3 -26 -3 -60q0 -32 3 -59zM191 0q-30 5 -57 5q-34 0 -62 -5q3 99 3 247q0 162 -3 253q29 -5 61 -5q29 0 58 5q-3 -114 -3 -253q0 -147 3 -247z" />
    <glyph glyph-name="j" unicode="j" 
d="M193 590q-22 3 -58 3q-43 0 -62 -2q3 26 3 59t-3 59q30 -2 63 -2q34 0 57 2q-3 -26 -3 -59q0 -34 3 -60zM192 -19q0 -172 -171 -172q-26 0 -59 8q3 17 3 46q0 28 -3 49q27 -8 46 -8q42 0 55 24q9 16 10 62q2 79 2 200q0 146 -3 310q39 -5 62 -5q27 0 58 5q-3 -90 -3 -209
q0 -51 1.5 -152.5t1.5 -141.5v-16z" />
    <glyph glyph-name="k" unicode="k" horiz-adv-x="514" 
d="M505 0q-47 5 -76 5q-35 0 -66 -5q-50 91 -128 204q-8 12 -13 13q-4 1 -8.5 -2.5t-14 -13t-9.5 -30.5v-29q1 -23 1 -29q0 -91 3 -113q-26 5 -56 5q-31 0 -64 -5q3 147 3 374q0 229 -3 335q29 -3 63 -3q31 0 57 3q0 -12 -4 -369q0 -20 -1 -30q-2 -26 -2 -27q0 -8 4 -8
q2 0 13 16q6 8 19 25q26 28 70 90l68 94q16 -4 51 -4q40 0 78 4q-2 -3 -6 -7q-32 -36 -129 -160q-3 -4 -29 -33q-8 -9 -8 -20q0 -10 7.5 -19.5t25.5 -34.5q57 -83 154 -226z" />
    <glyph glyph-name="l" unicode="l" 
d="M192 0q-21 4 -57 4q-34 0 -63 -4q3 156 3 336t-3 373q23 -3 62 -3q32 0 58 3q-2 -134 -2 -378q0 -231 2 -331z" />
    <glyph glyph-name="m" unicode="m" horiz-adv-x="807" 
d="M738 0q-24 6 -56 6q-31 0 -63 -6q4 84 4 199q0 72 -2 135q-3 88 -62 88q-52 0 -78 -41q-18 -28 -18 -76q0 -18 -1 -49v-51q0 -160 2 -205q-29 5 -57 5q-29 0 -62 -5q2 61 2 193q0 117 -1 148q-3 80 -63 80q-50 0 -76 -44q-17 -28 -20 -88q0 1 0 -92q0 -128 2 -197
q-31 5 -57 5q-30 0 -62 -5q2 89 2 234v133q-1 71 -11 133q29 -4 61 -4q33 0 56 4q5 -20 5 -43q0 -6 -1 -17t-1 -17q0 -8 2 -8q3 0 8 13q16 44 57 67q36 20 81 20q50 0 83 -26q26 -20 35 -57q4 -14 5 -14t11 21q15 31 42 50q36 25 92 25q67 0 103 -37.5t38 -100.5v-12v-76
q-1 -64 -1 -83q0 -182 1 -205z" />
    <glyph glyph-name="n" unicode="n" horiz-adv-x="544" 
d="M474 0q-31 6 -59 6t-60 -6q1 37 1 174q0 103 -1 161q-2 87 -66 87q-39 0 -66 -28q-32 -34 -33 -97q-1 -88 -1 -92q0 -36 1 -109t1 -96q-21 5 -56 5q-34 0 -63 -5q1 47 1 155q0 211 -2 263q-2 49 -10 82q37 -5 64 -5q29 0 58 5q3 -15 3 -43q0 -6 -1 -18q-2 -15 -2 -19
q0 -8 2 -8q1 0 11 18q3 7 10 20q43 61 129 61q67 0 102.5 -40t35.5 -110v-7v-71q-1 -52 -1 -83q0 -132 2 -200z" />
    <glyph glyph-name="o" unicode="o" horiz-adv-x="521" 
d="M475 251q0 -128 -54 -196.5t-157 -68.5q-216 0 -216 263q0 126 54.5 195.5t159.5 69.5q104 0 158.5 -68t54.5 -195zM357 250q0 95 -22.5 136t-72.5 41t-72 -40q-24 -43 -24 -142q0 -172 96 -172q95 0 95 177z" />
    <glyph glyph-name="p" unicode="p" horiz-adv-x="547" 
d="M500 262q0 -122 -40 -192q-48 -82 -146 -82q-80 0 -112 52q-4 9 -13 20q-4 2 -4 -3q0 -7 2 -35q3 -31 3 -36l2 -174q-25 5 -55 5t-65 -5q2 66 2 262q0 191 -2 310q-1 59 -13 116q25 -1 47 -1q48 0 74 3q0 -20 1 -59q0 -13 4 -13q2 0 11 15q40 66 128 66q176 0 176 -249z
M380 251q0 91 -21.5 133t-71.5 42q-37 0 -68 -33q-24 -26 -27 -70q-3 -48 -3 -119q0 -37 1 -51q2 -33 30 -56t62 -23q54 0 77 45q21 41 21 132z" />
    <glyph glyph-name="q" unicode="q" horiz-adv-x="547" 
d="M480 500q-4 -24 -5 -94l-2 -291q0 -158 3 -303q-32 5 -63 5q-26 0 -57 -5q4 35 4 179v42l1.5 8.5t1.5 13.5q0 6 -4 6q-1 0 -13 -20q-30 -51 -114 -51q-183 0 -183 265q0 120 45 186q48 70 140 70q66 0 104 -29q10 -8 21 -22q1 -2 7 -15.5t10 -13.5q3 0 7 29q1 12 3 40
q13 -2 48 -2q28 0 46 2zM359 244q0 65 -4 89q-5 33 -13 46q-26 46 -82 46q-50 0 -71 -41.5t-21 -131.5q0 -95 23 -135.5t74 -40.5q48 0 76 38q12 17 15 36q3 23 3 94z" />
    <glyph glyph-name="r" unicode="r" horiz-adv-x="355" 
d="M333 450q0 -39 -4 -64q-27 10 -41 10q-80 0 -96 -95q-7 -41 -7 -95q0 -128 2 -206q-28 5 -58 5t-58 -5q3 91 3 229q0 163 0 136q-1 96 -12 135q32 -4 63 -4q29 0 52 4q5 -24 5 -50q0 -6 -1 -16t-1 -15q0 -11 4 -11q1 0 10 17q22 42 44 59q34 26 79 26q8 0 13 -1
q3 -27 3 -59z" />
    <glyph glyph-name="s" unicode="s" horiz-adv-x="468" 
d="M424 148q0 -71 -49 -115q-52 -47 -145 -47q-191 0 -190 166q21 -4 50 -4q27 0 52 5v-8q3 -76 91 -76q85 0 85 63q0 36 -44 57l-96 32q-59 20 -86 45q-39 36 -39 97q0 64 48 108t130 44q98 0 144 -52q24 -27 31 -71q3 -19 3 -36q-23 4 -49 4q-22 0 -47 -4q0 10 -3 21
q-13 55 -77 55q-75 0 -75 -57q0 -43 69 -67q123 -43 128 -45q69 -38 69 -115z" />
    <glyph glyph-name="t" unicode="t" horiz-adv-x="345" 
d="M324 49q0 -22 -3 -43q-43 -19 -104 -19q-132 0 -132 127v13q0 65 1 169q1 25 3 83v24q0 12 -11 12q-10 0 -27 -1q-21 -1 -28 -1q1 8 1 28q0 11 -1 22q66 44 105 156q15 2 35 2q19 0 42 -2q-3 -78 -3 -106q0 -15 10 -15h12q29 0 94 2q-1 -9 -1 -45q0 -34 1 -42
q-79 2 -99 2q-17 0 -17 -19v-114q0 -78 2 -131q1 -43 12 -57t50 -14q23 0 56 12q2 -17 2 -43z" />
    <glyph glyph-name="u" unicode="u" horiz-adv-x="545" 
d="M483 1q-34 5 -65 5t-56 -5q-1 6 -1 39q0 4 1 19.5t1 22.5q0 8 -4 8q-1 0 -11 -22.5t-23 -35.5q-42 -42 -115 -42q-69 0 -104.5 42t-34.5 113q1 139 1 163q0 128 -2 194q41 -6 63 -6q25 0 57 6q-3 -81 -3 -197q0 -48 2 -139q2 -87 66 -87q39 0 64 26t32 66q5 31 5 99
q0 122 -2 232q33 -5 60 -5q23 0 59 5q-2 -54 -2 -190q0 -132 2 -190q3 -85 10 -121z" />
    <glyph glyph-name="v" unicode="v" horiz-adv-x="472" 
d="M457 500q-94 -280 -160 -501q-22 3 -61 3q-40 0 -62 -3q-35 129 -159 501q36 -3 70 -3q32 0 53 3q27 -100 87 -306q5 -16 12 -54q1 -8 5 -8q3 0 5 9q4 20 11 52q0 1 83 307q25 -4 54 -4t62 4z" />
    <glyph glyph-name="w" unicode="w" horiz-adv-x="723" 
d="M708 500q-54 -190 -136 -501q-27 4 -63 4q-26 0 -63 -4q-16 79 -62 251q-10 39 -16 80q-4 25 -7 25q-5 0 -8 -25q-7 -50 -15 -80q-23 -83 -65 -251q-27 4 -59 4t-67 -4q-5 23 -132 501q35 -3 70 -3q27 0 49 3q34 -163 67 -291q4 -24 13 -68q2 -9 7 -9q4 0 6 9q5 25 14 69
q22 79 58 234l11 56q26 -4 58 -4q36 0 58 4l11 -56q18 -94 56 -235q5 -24 15 -68q2 -9 6 -9t6 9q3 24 11 68q42 174 68 291q24 -3 51 -3q24 0 58 3z" />
    <glyph glyph-name="x" unicode="x" horiz-adv-x="458" 
d="M448 0q-34 5 -66 5q-27 0 -66 -5q-24 48 -69 132q-3 5 -15 36q-5 13 -7 13q-1 0 -6 -12.5t-15 -34.5q-3 -6 -71 -134q-28 5 -57 5q-22 0 -66 -6q78 127 144 242q4 7 4 15q0 12 -4 19q-42 75 -133 225q32 -3 69 -3q34 0 63 3q21 -41 60 -116q7 -12 14 -34q3 -10 7 -10
t8.5 11.5t14.5 34.5q22 38 60 114q19 -3 53 -3q39 0 67 3q-62 -98 -131 -217q-6 -10 -6 -18t5 -17q58 -105 143 -248z" />
    <glyph glyph-name="y" unicode="y" horiz-adv-x="467" 
d="M452 500q-30 -90 -158 -504q-29 -93 -59 -134q-43 -56 -112 -56q-37 0 -80 10q4 22 4 46q0 19 -4 48q31 -10 60 -10q33 0 53 22t20 57q0 20 -25 101q-84 270 -136 420q36 -3 69 -3q38 0 55 3q27 -106 86 -311q4 -18 10 -48q2 -7 6 -7t5 7q3 18 9 47q18 59 42 158
q31 123 39 154q20 -4 52 -4q26 0 64 4z" />
    <glyph glyph-name="z" unicode="z" horiz-adv-x="435" 
d="M398 0q-81 4 -208 4q-103 0 -153 -4q1 9 1 42q0 31 -1 41q1 2 25 36q35 51 174 265q2 4 13 15t11 14t-9 3q-4 0 -13 -1t-13 -1h-36q-46 0 -136 -4q3 23 3 46q0 20 -3 44q150 -4 199 -4q70 0 139 4q1 -12 1 -38q0 -22 -2 -40q-32 -46 -197 -301q-5 -7 -18 -22q-5 -6 -5 -8
q0 -4 5 -4q13 1 39 2q131 2 184 4q-3 -18 -3 -47q0 -25 3 -46z" />
    <glyph glyph-name="braceleft" unicode="{" horiz-adv-x="356" 
d="M306 -119q-98 -2 -138 27t-40 101q0 7 2 80t2 80q0 96 -78 107q3 16 3 28q0 10 -3 26q78 10 78 105q0 6 -2.5 73.5t-2.5 73.5q0 73 37.5 102.5t140.5 29.5q-3 -16 -3 -26q0 -11 3 -25q-52 -1 -68 -19q-12 -14 -12 -59q0 -6 2.5 -72.5t2.5 -72.5q0 -89 -70 -123
q-2 -1 -21 -5q-13 -3 -13 -9q0 -7 13 -10q20 -5 21 -5q70 -31 70 -128q0 -7 -2.5 -76t-2.5 -76q0 -44 16.5 -59.5t64.5 -16.5q-4 -16 -4 -25t4 -26z" />
    <glyph glyph-name="bar" unicode="|" horiz-adv-x="244" 
d="M167 -155q-16 3 -41 3q-26 0 -48 -3q3 154 3 456q0 224 -3 416q26 -2 48 -2t41 2q-3 -221 -3 -415q0 -280 3 -457z" />
    <glyph glyph-name="braceright" unicode="}" horiz-adv-x="356" 
d="M302 265q-78 -10 -78 -105q0 -6 2.5 -73.5t2.5 -73.5q0 -73 -36 -101q-39 -31 -142 -31q2 10 2 26t-2 25q52 1 68 19q12 14 12 59q0 6 -2.5 72.5t-2.5 72.5q0 89 70 123q2 1 21 5q13 3 13 9q0 7 -13 10q-20 5 -21 5q-70 31 -70 128q0 7 2.5 76t2.5 76q0 42 -13 57
q-16 18 -67 19q2 8 2 24q0 19 -2 27q98 2 137.5 -27t39.5 -101q0 -7 -2 -79.5t-2 -79.5q0 -97 78 -108q-2 -11 -2 -29q0 -15 2 -25z" />
    <glyph glyph-name="asciitilde" unicode="~" horiz-adv-x="630" 
d="M573 507q-12 -168 -143 -168q-48 0 -126.5 45t-112.5 45q-52 0 -71 -77q-13 4 -29 4q-14 0 -33 -4q14 172 139 172q47 0 129 -47.5t110 -47.5q31 0 47 22q12 15 25 56q22 -5 33 -5q13 0 32 5z" />
    <glyph glyph-name="nonbreakingspace" unicode="&#xa0;" horiz-adv-x="625" 
 />
    <glyph glyph-name="exclamdown" unicode="&#xa1;" horiz-adv-x="345" 
d="M234 398q-28 2 -62 2t-62 -2q3 31 3 66t-3 59q22 -4 57 -4q36 0 67 4q-3 -36 -3 -66q0 -32 3 -59zM243 -172q-35 3 -74 3q-37 0 -66 -3q0 138 28 498q13 -2 37 -2t44 2q31 -398 31 -498z" />
    <glyph glyph-name="cent" unicode="&#xa2;" horiz-adv-x="510" 
d="M461 217q0 -10 -1 -23q-4 -57 -34 -100q-32 -47 -85 -62q-21 -6 -21 -27q0 -15 2 -76q-23 4 -52 4t-50 -4q3 69 3 76q0 22 -18 26q-148 33 -148 232q0 213 148 252q18 5 18 20q0 37 -2 75q27 -4 52 -4q28 0 50 4q-3 -56 -3 -75q0 -17 17 -21q113 -26 121 -146
q1 -14 0 -29q-18 3 -47 3q-30 0 -61 -4q0 10 -1 26q-7 76 -74 76q-100 0 -100 -173q0 -160 94 -160q78 0 84 90v24q35 -7 78 -7q14 0 30 3z" />
    <glyph glyph-name="sterling" unicode="&#xa3;" horiz-adv-x="558" 
d="M529 151q-12 -163 -175 -163q-65 0 -172 35q-24 8 -39 8q-26 0 -29 -33q-24 7 -44 7q-18 0 -44 -5q0 22 26 59q38 54 81 77q11 6 17 16q16 26 16 53q0 28 -14 87q-4 18 -22 18q-2 0 -84 -2q4 19 4 35q0 18 -4 39q52 -3 72 -3q8 0 8 5q0 2 -3 12q-16 55 -16 102
q0 98 56.5 151t157.5 53q183 0 191 -152q1 -22 0 -40q-31 5 -57 5q-23 0 -50 -5q1 18 -1 36q-8 68 -83 68q-96 0 -96 -103q0 -40 16 -111q3 -14 5 -16q2 -5 13 -5q17 0 128 3q-4 -21 -4 -39q0 -16 4 -34q-71 2 -117 2q-5 0 -6 -3q-1 -5 0 -9q7 -36 7 -60q0 -72 -35 -111
q-10 -11 -10 -14q0 -6 20 -11q7 0 22 -2q56 -12 76 -12q35 0 52.5 15t22.5 53q2 13 1 35q23 -4 56 -4t52 4q2 -29 1 -41z" />
    <glyph glyph-name="currency" unicode="&#xa4;" horiz-adv-x="546" 
d="M480 199l-72 -72l-73 72q-29 -11 -62 -11t-62 11l-72 -72l-72 72l70 69q-15 32 -15 65q0 34 15 65l-70 71l72 71l74 -74q30 11 60 11q33 0 62 -11l73 74l72 -71l-70 -71q14 -29 14 -65q0 -35 -14 -65zM343 332q0 29 -17 49q-20 22 -53 22t-50.5 -21t-17.5 -50t18 -50.5
t50 -21.5q33 0 52 23q18 20 18 49z" />
    <glyph glyph-name="yen" unicode="&#xa5;" horiz-adv-x="543" 
d="M523 684q-92 -166 -151 -286q-14 -29 -14 -27q0 -3 6 -3q3 0 11.5 1.5t10.5 1.5q44 1 98 2q-3 -21 -3 -34q0 -15 3 -31q-123 3 -139 3q-14 0 -18.5 -15t-4.5 -36q0 -20 15 -20q32 0 147 3q-3 -21 -3 -31t3 -31q-59 1 -141 1q-20 0 -20 -16q0 -34 4 -166q-33 5 -56 5
q-31 0 -58 -5q4 118 4 167q0 15 -20 15q4 0 -136 -2q2 12 2 27t-2 36l135 -2q20 0 20 15q0 21 -5 38t-17 17q12 0 -133 -3q3 19 3 31q0 10 -3 34q30 -1 93 -2q2 0 10.5 -1.5t11.5 -1.5q5 0 5 3l-14 29q-64 134 -146 283q24 -2 64 -2t62 2q38 -98 111 -251q1 -1 9 -24
q5 -14 9 -14q5 0 10 14l9 24q62 125 112 252q30 -3 60 -3t56 3z" />
    <glyph glyph-name="brokenbar" unicode="&#xa6;" horiz-adv-x="232" 
d="M154 439q-15 2 -36 2t-41 -2q3 101 3 135q0 39 -3 127q17 -2 38 -2t39 2q-2 -54 -2 -130q0 -72 2 -132zM154 0q-15 2 -39 2t-38 -2q3 101 3 135q0 38 -3 127q24 -2 41 -2t36 2q-2 -56 -2 -131q0 -72 2 -131z" />
    <glyph glyph-name="section" unicode="&#xa7;" horiz-adv-x="543" 
d="M501 290q0 -84 -71 -134q-3 -2 -18 -8q-8 -3 -8 -5q0 -1 22 -13q62 -34 62 -121q0 -77 -59.5 -124.5t-161.5 -47.5q-96 0 -155 35q-70 42 -76 125q-1 8 0 23q29 -7 56 -7q25 0 53 7q7 -94 115 -94q107 0 107 75q0 48 -73 79q-56 18 -113 36q-133 49 -133 159
q0 105 80 141q6 2 14 4t8 5q0 2 -9 7q-13 6 -18 10q-47 38 -47 105q0 71 55 115t151 44q204 0 212 -173q-21 5 -49 5t-57 -5q-7 84 -104 84q-91 0 -91 -69q0 -30 34 -52q21 -13 66 -26q70 -21 79 -24q129 -46 129 -156zM392 274q0 39 -41 64q-31 19 -76 32q-28 8 -39 8
q-8 0 -20 -6q-58 -30 -58 -83q0 -34 30 -56q25 -18 67 -31q34 -10 51.5 -11t12.5 -1q9 0 14 3q59 31 59 81z" />
    <glyph glyph-name="dieresis" unicode="&#xa8;" 
d="M286 584q-20 3 -53 3t-58 -3q2 19 2 53q0 35 -2 58q25 -3 59 -3q32 0 52 3q-2 -23 -2 -58q0 -34 2 -53zM90 584q-18 2 -57 2q-37 0 -55 -2q2 20 2 54t-2 57q22 -2 58 -2q34 0 54 2q-2 -19 -2 -55q0 -37 2 -56z" />
    <glyph glyph-name="copyright" unicode="&#xa9;" horiz-adv-x="788" 
d="M756 350q0 -157 -101.5 -259t-261.5 -102q-159 0 -260.5 102.5t-101.5 258.5t102 258.5t261 102.5t260.5 -102t101.5 -259zM680 350q0 126 -80 209t-207 83t-206 -82.5t-79 -209.5t79.5 -209.5t205.5 -82.5q127 0 207 83t80 209zM567 294q-9 -73 -54.5 -114t-112.5 -41
q-79 0 -132 56q-57 59 -57 156q0 98 55 156q52 55 132 55q64 0 107 -37q47 -39 57 -112q-14 3 -34 3q-24 0 -39 -3q-13 84 -92 84q-46 0 -76 -36q-33 -40 -33 -109t34 -109q31 -38 78 -38q81 0 93 90q20 -5 37 -5q21 0 37 4z" />
    <glyph glyph-name="ordfeminine" unicode="&#xaa;" horiz-adv-x="355" 
d="M302 384q-14 1 -27 1q-27 0 -48 -4q-2 21 -5 41q-1 -1 -3 -5q-4 -8 -10 -14q-25 -25 -66 -25q-44 0 -69 24t-25 65q0 60 53 83q30 13 102 19q16 1 16 20v6q0 45 -44 45q-46 0 -46 -38v-5q1 -4 1 -7q-9 2 -31 2q-23 0 -36 -2q0 3 -1 9v6q0 43 32 65t84 22q97 0 110 -66
q4 -21 4 -67v-92q0 -43 9 -83zM222 521v4q-2 4 -5 3q-5 -1 -24 -3q-35 -4 -48 -12q-22 -12 -22 -43q0 -37 42 -37q53 0 55 56q1 9 2 32z" />
    <glyph glyph-name="guillemotleft" unicode="&#xab;" horiz-adv-x="478" 
d="M435 436q-35 -59 -79 -143q-1 -3 -10 -13.5t-9 -15.5t7 -14q10 -12 11 -15q37 -74 77 -143q-26 2 -50 2q-22 0 -54 -2q-40 82 -95 172q52 83 96 172q34 -2 52 -2q22 0 54 2zM245 433q-52 -82 -83 -142q-1 -1 -9.5 -12.5t-8.5 -16.5q0 -6 8 -15q11 -12 12 -15
q43 -83 79 -139q-30 3 -50 3q-12 0 -54 -3q-44 85 -97 170q45 68 97 170q13 -1 51 -1q43 0 55 1z" />
    <glyph glyph-name="logicalnot" unicode="&#xac;" horiz-adv-x="580" 
d="M529 71q-24 2 -50 2q-27 0 -49 -2q3 53 3 116q0 39 -1 57q-2 29 -33 30q-50 2 -123 2q1 0 -226 -3q2 18 2 50t-2 48q91 -3 244 -3q154 0 235 3q-4 -78 -4 -158t4 -142z" />
    <glyph glyph-name="minus" unicode="&#xad;" horiz-adv-x="580" 
d="M523 209q-133 3 -253 3t-212 -3q2 16 2 44q0 30 -2 52q98 -3 230 -3q134 0 235 3q-4 -26 -4 -51q0 -26 4 -45z" />
    <glyph glyph-name="minus" unicode="&#x2212;" horiz-adv-x="580" 
d="M523 209q-133 3 -253 3t-212 -3q2 16 2 44q0 30 -2 52q98 -3 230 -3q134 0 235 3q-4 -26 -4 -51q0 -26 4 -45z" />
    <glyph glyph-name="registered" unicode="&#xae;" horiz-adv-x="788" 
d="M756 350q0 -156 -102 -258.5t-261 -102.5t-260.5 102.5t-101.5 258.5t102 258.5t261 102.5t260.5 -102t101.5 -259zM680 350q0 126 -80 209t-207 83t-206 -82.5t-79 -209.5t79.5 -209.5t205.5 -82.5q127 0 207 83t80 209zM547 149q-19 3 -36 3q-23 0 -40 -2
q-17 106 -39 143q-16 26 -58 26h-25q-21 0 -21 -16q-1 -88 2 -154q-19 3 -35 3q-14 0 -35 -3l2 206q0 46 -2 203q24 -2 62 -2q14 0 41.5 1t40.5 1q67 0 103 -33q32 -30 32 -82q0 -31 -15 -56q-17 -28 -45 -34q-22 -5 -22 -9q0 -5 19 -14t32 -38q15 -33 39 -143zM466 441
q0 55 -68 55h-56q-13 0 -13 -12q-1 -57 -1 -96q0 -8 14 -8h30q48 0 66 8q28 13 28 53z" />
    <glyph glyph-name="macron" unicode="&#xaf;" 
d="M281 580q-46 2 -136 2q-95 0 -159 -2q3 15 3 34t-3 38q55 -2 149 -2q93 0 146 2q-3 -20 -3 -38q0 -19 3 -34z" />
    <glyph glyph-name="macron" unicode="&#x2c9;" 
d="M281 580q-46 2 -136 2q-95 0 -159 -2q3 15 3 34t-3 38q55 -2 149 -2q93 0 146 2q-3 -20 -3 -38q0 -19 3 -34z" />
    <glyph glyph-name="degree" unicode="&#xb0;" horiz-adv-x="406" 
d="M361 548q0 -68 -46.5 -116t-112.5 -48q-63 0 -109.5 46.5t-46.5 115.5q0 67 46.5 115t111.5 48t111 -47t46 -114zM291 547q0 38 -26 64t-62 26t-61.5 -26t-25.5 -64q0 -37 25.5 -63.5t61.5 -26.5q37 0 62.5 26.5t25.5 63.5z" />
    <glyph glyph-name="plusminus" unicode="&#xb1;" horiz-adv-x="580" 
d="M528 260q-124 3 -158 3h-22q-13 0 -13 -12v-10q1 -7 1 -9q1 -105 3 -138q-26 4 -52 4t-46 -4q3 42 4 137q0 2 1 10v10q0 12 -12 12h-10q-8 -1 -11 -1q-122 -1 -161 -2q3 20 3 50q0 28 -3 49q104 -4 160 -4q3 0 10 -1h11q12 0 12 13v11q-1 8 -1 10q-2 100 -3 136
q30 -3 52 -3q24 0 46 3q-2 -40 -3 -137q0 -2 -1 -9v-10q0 -14 14 -14h11q7 1 9 1q69 2 159 4q-3 -18 -3 -50q0 -30 3 -49zM519 -38q-97 3 -226 3q-132 0 -235 -3q2 20 2 44t-2 49q108 -3 230 -3q119 0 231 3q-3 -16 -3 -42t3 -51z" />
    <glyph glyph-name="twosuperior" unicode="&#xb2;" horiz-adv-x="334" 
d="M290 304q-46 2 -127 2q-83 0 -128 -2v6v19q-1 13 -1 20v16q35 29 102 90q83 84 83 133q0 63 -58 63t-58 -67v-20q-17 3 -33 3q-10 0 -33 -3q-1 21 -1 16q0 60 35 92.5t93 32.5q57 0 91 -30.5t34 -85.5q0 -53 -39 -101q-27 -33 -119 -107l-21 -17q0 -3 7 -3q2 0 11 1t13 1
h51q41 0 98 3q-2 -14 -2 -34q0 -16 2 -28z" />
    <glyph glyph-name="threesuperior" unicode="&#xb3;" horiz-adv-x="334" 
d="M298 413q0 -55 -38 -85.5t-102 -30.5q-54 0 -87 25q-36 27 -38 76q-1 1 -1 21q20 -3 37 -3q16 0 31 3v-8q3 -61 60 -61q64 0 64 61q0 69 -70 69q-6 0 -20 -1h-21q2 12 2 25t-2 25q8 0 22.5 -1t20.5 -1q62 0 62 63q0 61 -57 61q-56 0 -57 -64q-18 3 -35 3t-31 -3v20
q4 47 40 73q33 24 85 24q59 0 92 -30t33 -79q0 -55 -47 -80q-3 -1 -12.5 -3.5t-9.5 -5.5q0 -4 10.5 -5t12.5 -2q56 -23 56 -86z" />
    <glyph glyph-name="acute" unicode="&#xb4;" 
d="M252 702q-90 -100 -119 -143q-27 3 -39 3q-30 0 -52 -3q6 16 72 143q46 4 69 4q30 0 69 -4z" />
    <glyph glyph-name="mu" unicode="&#xb5;" horiz-adv-x="577" 
d="M495 1q-31 5 -61 5q-24 0 -55 -5v32q0 3 1 17.5t1 18.5q0 3 -3 5q-6 -9 -16 -25q-37 -54 -101 -54q-28 0 -64 23q-2 0 -3 -3q0 3 3 -61q2 -67 3 -119q-26 4 -57 4q-30 0 -65 -4l2 449q0 161 -1 216q36 -6 63 -6q30 0 58 6q-4 -127 -4 -207q0 -3 3 -106q1 -39 9 -61
q14 -38 63 -38q39 0 63 25q35 37 36 111v137q0 89 -1 139q24 -5 56 -5q30 0 65 5q-3 -116 -3 -208q0 -43 1 -126t7 -165z" />
    <glyph glyph-name="mu" unicode="&#x3bc;" horiz-adv-x="577" 
d="M495 1q-31 5 -61 5q-24 0 -55 -5v32q0 3 1 17.5t1 18.5q0 3 -3 5q-6 -9 -16 -25q-37 -54 -101 -54q-28 0 -64 23q-2 0 -3 -3q0 3 3 -61q2 -67 3 -119q-26 4 -57 4q-30 0 -65 -4l2 449q0 161 -1 216q36 -6 63 -6q30 0 58 6q-4 -127 -4 -207q0 -3 3 -106q1 -39 9 -61
q14 -38 63 -38q39 0 63 25q35 37 36 111v137q0 89 -1 139q24 -5 56 -5q30 0 65 5q-3 -116 -3 -208q0 -43 1 -126t7 -165z" />
    <glyph glyph-name="paragraph" unicode="&#xb6;" horiz-adv-x="543" 
d="M471 -153q-13 2 -36 2t-36 -2q3 160 3 362q0 197 -3 407q0 22 -14 22h-22.5h-22.5q-16 0 -16 -20q-3 -209 -3 -403q0 -215 3 -368q-17 3 -35 3q-20 0 -38 -3q3 296 3 288q0 74 -1 153q0 19 -6 24.5t-22 6.5q-187 14 -187 190q0 189 230 189h65q44 -1 66 -1q56 0 72 1
q-4 -199 -4 -425q0 -227 4 -426z" />
    <glyph glyph-name="periodcentered" unicode="&#xb7;" horiz-adv-x="230" 
d="M185 240q-22 3 -64 3q-44 0 -75 -3q2 22 2 68q0 47 -2 71q28 -3 72 -3q42 0 67 3q-4 -30 -4 -68q0 -37 4 -71z" />
    <glyph glyph-name="periodcentered" unicode="&#x2219;" horiz-adv-x="230" 
d="M185 240q-22 3 -64 3q-44 0 -75 -3q2 22 2 68q0 47 -2 71q28 -3 72 -3q42 0 67 3q-4 -30 -4 -68q0 -37 4 -71z" />
    <glyph glyph-name="cedilla" unicode="&#xb8;" 
d="M231 -103q0 -40 -35.5 -62.5t-88.5 -22.5q-39 0 -83 15q10 19 13 46q39 -11 62 -11q51 0 51 32q0 27 -47 29l-44 2q24 37 45 85h58l-20 -37q-7 -8 -7 -11t4 -3q6 3 16 5q76 -3 76 -67z" />
    <glyph glyph-name="onesuperior" unicode="&#xb9;" horiz-adv-x="334" 
d="M216 300q-14 3 -34 3q-23 0 -41 -3q2 69 2 173v92q0 5 1 15v13q0 7 -5 8q4 -1 -15 -6q-35 -9 -56 -12q2 11 2 26t-2 24q75 14 99 65q9 -2 23 -2q15 0 26 2q-2 -86 -2 -199q0 -115 2 -199z" />
    <glyph glyph-name="ordmasculine" unicode="&#xba;" horiz-adv-x="358" 
d="M310 534q0 -158 -128 -158q-132 0 -132 157q0 159 130 159t130 -158zM235 534q0 103 -55 103t-55 -107q0 -99 55 -99t55 103z" />
    <glyph glyph-name="guillemotright" unicode="&#xbb;" horiz-adv-x="478" 
d="M437 264q-49 -75 -98 -170q-25 2 -51 2q-30 0 -54 -2q44 69 82 143q1 2 10 14q8 9 8 14q0 6 -9 16.5t-10 13.5q-39 75 -80 139q30 -3 50 -3q13 0 55 3q44 -85 97 -170zM245 263q-54 -87 -96 -171q-17 1 -52 1q-38 0 -54 -1q39 65 79 142q1 3 11 15q8 9 8 14t-7 14
q-10 12 -11 15q-40 80 -77 144q39 -3 50 -3q6 0 54 3q43 -87 95 -173z" />
    <glyph glyph-name="onequarter" unicode="&#xbc;" horiz-adv-x="665" 
d="M621 87q-24 1 -43 1q-12 0 -12 -12q0 -16 2 -76q-19 3 -34 3q-17 0 -35 -3q2 49 2 76q0 13 -14 13q-76 0 -146 -2q2 15 2 26q0 14 -1 22q93 164 140 261q15 -2 44 -2q26 0 41 2q-2 -101 -2 -243q0 -13 12 -13q7 0 23 1t21 1q-1 -7 -1 -26q0 -23 1 -29zM549 699
q-215 -374 -387 -708q-12 4 -33 4q-29 0 -39 -4q199 352 384 708q18 -3 34 -3q25 0 41 3zM197 300q-14 3 -34 3q-23 0 -41 -3q2 69 2 173v92q0 5 1 15v13q0 7 -5 8q4 -1 -15 -6q-35 -9 -56 -12q2 11 2 26t-2 24q74 14 98 65q9 -2 24 -2t26 2q-2 -86 -2 -199q0 -115 2 -199z
M503 314q0 5 -4 5q-3 0 -6 -7q-5 -13 -11 -23q-24 -45 -73 -136q-5 -9 -5 -10q0 -3 4 -3h8h73q12 0 12 13q0 6 1 21v23q0 13 -1 43v39q0 10 1 25t1 10z" />
    <glyph glyph-name="onehalf" unicode="&#xbd;" horiz-adv-x="665" 
d="M626 -1q-46 2 -127 2q-82 0 -127 -2v6q0 23 -1 39l-1 16q36 30 103 91q82 83 82 132q0 63 -58 63t-58 -67q0 -3 1 -20q-17 3 -33 3q-11 0 -34 -3v16q0 60 35 92.5t92 32.5t91.5 -30.5t34.5 -85.5q0 -52 -40 -101q-27 -33 -119 -107l-21 -17q0 -3 7 -3q2 0 11 1t13 1h51
q41 0 98 3q-2 -14 -2 -34q0 -16 2 -28zM540 699q-215 -374 -387 -708q-9 3 -33 3q-31 0 -39 -3q199 352 384 708q18 -3 34 -3q25 0 41 3zM192 300q-14 3 -34 3q-22 0 -40 -3q2 69 2 173v92v28q0 7 -4 8q4 -1 -15 -6q-35 -9 -56 -12q2 11 2 26t-2 24q74 14 98 65q9 -2 24 -2
q14 0 25 2q-2 -86 -2 -199q0 -115 2 -199z" />
    <glyph glyph-name="threequarters" unicode="&#xbe;" horiz-adv-x="665" 
d="M579 699q-215 -374 -387 -708q-12 4 -33 4q-29 0 -39 -4q199 352 384 708q18 -3 34 -3q25 0 41 3zM621 87q-24 1 -43 1q-12 0 -12 -12q0 -16 2 -76q-19 3 -34 3q-17 0 -35 -3q2 49 2 76q0 13 -14 13q-76 0 -146 -2q2 15 2 26q0 14 -1 22q93 164 140 261q15 -2 44 -2
q26 0 41 2q-2 -101 -2 -243q0 -13 12 -13q7 0 23 1t21 1q-1 -7 -1 -26q0 -23 1 -29zM298 413q0 -55 -38 -85.5t-102 -30.5q-54 0 -87 25q-36 27 -38 76q-1 1 -1 21q20 -3 37 -3q16 0 31 3v-8q3 -61 60 -61q64 0 64 61q0 69 -70 69q-6 0 -20 -1h-21q2 12 2 25t-2 25
q8 0 22.5 -1t20.5 -1q62 0 62 63q0 61 -57 61q-56 0 -57 -64q-18 3 -35 3t-31 -3v20q4 47 40 73q33 24 85 24q59 0 92 -30t33 -79q0 -55 -47 -80q-3 -1 -12.5 -3.5t-9.5 -5.5q0 -4 10.5 -5t12.5 -2q56 -23 56 -86zM503 314q0 5 -4 5q-3 0 -6 -7q-5 -13 -11 -23
q-24 -45 -73 -136q-5 -9 -5 -10q0 -3 4 -3h8h73q12 0 12 13q0 6 1 21v23q0 13 -1 43v39q0 10 1 25t1 10z" />
    <glyph glyph-name="questiondown" unicode="&#xbf;" horiz-adv-x="491" 
d="M335 399q-31 3 -65 3q-35 0 -58 -3q3 25 3 65t-3 60q33 -5 61 -5t62 5q-3 -22 -3 -60q0 -37 3 -65zM455 14q1 -18 -1 -36q-14 -159 -207 -159q-96 0 -151 47.5t-55 141.5q0 67 29 112q24 37 80 72q39 25 53 42q19 24 20 61v28q25 -4 51 -4t52 4v-34q-1 -78 -44 -120
q-39 -29 -79 -58q-42 -35 -42 -97q0 -57 21.5 -82t69.5 -25q45 0 65.5 18.5t24.5 61.5q1 10 0 27q23 -3 56 -3q38 0 57 3z" />
    <glyph glyph-name="Agrave" unicode="&#xc0;" horiz-adv-x="598" 
d="M372 734q-16 2 -44 2q-19 0 -39 -2q-37 48 -122 147q27 2 66 2q38 0 71 -2q51 -116 68 -147zM581 -2q-28 5 -62 5q-31 0 -67 -5q-14 65 -36 136q-5 15 -23 16q-73 3 -109 3q-11 0 -84 -3q-24 -1 -29 -16q-21 -68 -36 -136q-32 5 -58 5q-32 0 -61 -5q53 176 106 353
q70 236 96 344q42 -4 87 -4q39 0 75 4q33 -140 201 -697zM388 249q0 -5 -6 17q-26 96 -73 266q-3 10 -8 41q-2 14 -7 14t-10 -24q-3 -16 -6 -31l-36 -142q-21 -87 -43 -139q-1 -3 -1 -5q1 -4 10 -4q14 0 43.5 1.5t45.5 1.5q14 0 41.5 -1.5t40.5 -1.5q9 0 9 7z" />
    <glyph glyph-name="Aacute" unicode="&#xc1;" horiz-adv-x="598" 
d="M431 874q-46 -51 -120 -143q-27 3 -39 3q-30 0 -52 -3q6 16 72 143q34 3 69 3q41 0 70 -3zM581 -2q-28 5 -62 5q-31 0 -67 -5q-14 65 -36 136q-5 15 -23 16q-73 3 -109 3q-11 0 -84 -3q-24 -1 -29 -16q-21 -68 -36 -136q-32 5 -58 5q-32 0 -61 -5q53 176 106 353
q70 236 96 344q42 -4 87 -4q39 0 75 4q33 -140 201 -697zM388 249q0 -5 -6 17q-26 96 -73 266q-3 10 -8 41q-2 14 -7 14t-10 -24q-3 -16 -6 -31l-36 -142q-21 -87 -43 -139q-1 -3 -1 -5q1 -4 10 -4q14 0 43.5 1.5t45.5 1.5q14 0 41.5 -1.5t40.5 -1.5q9 0 9 7z" />
    <glyph glyph-name="Acircumflex" unicode="&#xc2;" horiz-adv-x="598" 
d="M453 733q-30 3 -52 3q-14 0 -44 -3q-14 21 -43 53q-1 1 -9 14q-5 9 -11 9t-11.5 -8.5t-10.5 -15.5q-29 -32 -42 -52q-18 3 -39 3q-28 0 -57 -3q39 52 102 143q33 -3 59 -3q27 0 56 3q42 -59 102 -143zM581 -2q-28 5 -62 5q-31 0 -67 -5q-14 65 -36 136q-5 15 -23 16
q-73 3 -109 3q-11 0 -84 -3q-24 -1 -29 -16q-21 -68 -36 -136q-32 5 -58 5q-32 0 -61 -5q53 176 106 353q70 236 96 344q42 -4 87 -4q39 0 75 4q33 -140 201 -697zM388 249q0 -5 -6 17q-26 96 -73 266q-3 10 -8 41q-2 14 -7 14t-10 -24q-3 -16 -6 -31l-36 -142
q-21 -87 -43 -139q-1 -3 -1 -5q1 -4 10 -4q14 0 43.5 1.5t45.5 1.5q14 0 41.5 -1.5t40.5 -1.5q9 0 9 7z" />
    <glyph glyph-name="Atilde" unicode="&#xc3;" horiz-adv-x="598" 
d="M473 869l-1 -12q-4 -48 -29 -78q-27 -33 -71 -33q-29 0 -74.5 21.5t-64.5 21.5q-33 0 -41 -46q-15 3 -30 3q-14 0 -35 -3l1 14q3 47 33 79t70 32q30 0 74.5 -22t63.5 -22q31 0 40 45q19 -3 34 -3t30 3zM581 -2q-28 5 -62 5q-31 0 -67 -5q-14 65 -36 136q-5 15 -23 16
q-73 3 -109 3q-11 0 -84 -3q-24 -1 -29 -16q-21 -68 -36 -136q-32 5 -58 5q-32 0 -61 -5q53 176 106 353q70 236 96 344q42 -4 87 -4q39 0 75 4q33 -140 201 -697zM388 249q0 -5 -6 17q-26 96 -73 266q-3 10 -8 41q-2 14 -7 14t-10 -24q-3 -16 -6 -31l-36 -142
q-21 -87 -43 -139q-1 -3 -1 -5q1 -4 10 -4q14 0 43.5 1.5t45.5 1.5q14 0 41.5 -1.5t40.5 -1.5q9 0 9 7z" />
    <glyph glyph-name="Adieresis" unicode="&#xc4;" horiz-adv-x="598" 
d="M447 749q-20 3 -54 3q-33 0 -58 -3q2 19 2 54t-2 58q25 -3 59 -3q33 0 53 3q-2 -23 -2 -58t2 -54zM251 750q-18 2 -57 2q-38 0 -56 -2q2 20 2 54t-2 57q22 -2 58 -2q35 0 55 2q-3 -28 -3 -55q0 -28 3 -56zM581 -2q-28 5 -62 5q-31 0 -67 -5q-14 65 -36 136q-5 15 -23 16
q-73 3 -109 3q-11 0 -84 -3q-24 -1 -29 -16q-21 -68 -36 -136q-32 5 -58 5q-32 0 -61 -5q53 176 106 353q70 236 96 344q42 -4 87 -4q39 0 75 4q33 -140 201 -697zM388 249q0 -5 -6 17q-26 96 -73 266q-3 10 -8 41q-2 14 -7 14t-10 -24q-3 -16 -6 -31l-36 -142
q-21 -87 -43 -139q-1 -3 -1 -5q1 -4 10 -4q14 0 43.5 1.5t45.5 1.5q14 0 41.5 -1.5t40.5 -1.5q9 0 9 7z" />
    <glyph glyph-name="Aring" unicode="&#xc5;" horiz-adv-x="598" 
d="M398 805q0 -42 -29 -72t-70 -30q-40 0 -69 29t-29 73q0 42 28.5 71.5t69.5 29.5t70 -29.5t29 -71.5zM581 -2q-28 5 -62 5q-31 0 -67 -5q-14 65 -36 136q-5 15 -23 16q-73 3 -109 3q-11 0 -84 -3q-24 -1 -29 -16q-21 -68 -36 -136q-32 5 -58 5q-32 0 -61 -5
q53 176 106 353q70 236 96 344q42 -4 87 -4q39 0 75 4q33 -140 201 -697zM352 804q0 23 -15.5 39t-37.5 16q-21 0 -36 -16t-15 -39t15 -39t36 -16q22 0 37.5 16t15.5 39zM388 249q0 -5 -6 17q-26 96 -73 266q-3 10 -8 41q-2 14 -7 14t-10 -24q-3 -16 -6 -31l-36 -142
q-21 -87 -43 -139q-1 -3 -1 -5q1 -4 10 -4q14 0 43.5 1.5t45.5 1.5q14 0 41.5 -1.5t40.5 -1.5q9 0 9 7z" />
    <glyph glyph-name="AE" unicode="&#xc6;" horiz-adv-x="852" 
d="M792 0q-102 6 -194 6q-107 0 -181 -6q1 18 1 29q0 87 -3 105q-3 15 -6 19t-16 5q-45 2 -65 2q-45 0 -102 -3q-21 -1 -31 -21q-36 -75 -58 -136q-33 5 -55 5q-38 0 -67 -5q172 371 310 694q56 -5 153 -5h62q49 1 64 1q106 1 177 3q-2 -23 -2 -54q0 -30 2 -51
q-101 4 -234 4q-18 0 -22.5 -3.5t-4.5 -19.5q0 -15 2 -154q0 -19 23 -19q58 0 225 4q-2 -20 -2 -55t2 -51q-71 4 -163 4h-57q-22 -1 -22 -18q0 -88 4 -158q1 -19 26 -19q124 0 234 5q-3 -30 -3 -60q0 -28 3 -48zM409 271q0 3 -2.5 123.5t-3.5 140.5q-1 9 0 22q1 16 1 18
q0 24 -7 24q-10 0 -16 -21t-13 -37q-43 -99 -124 -280q-3 -6 -3 -10q0 -6 11 -6q8 0 27.5 1t29.5 1h75q18 0 20.5 3t4.5 21z" />
    <glyph glyph-name="Ccedilla" unicode="&#xc7;" horiz-adv-x="583" 
d="M543 227q0 -26 -6 -61q-26 -147 -177 -168q-42 -6 -42 -33q0 -6 5 -6q1 0 9 1t13 1q30 0 50 -17.5t20 -47.5q0 -40 -37 -63q-33 -21 -87 -21q-40 0 -84 15q10 19 13 46q39 -11 63 -11q51 0 51 32q0 28 -36 28q-16 0 -30 -5q-13 8 -24 10q6 14 29 52q4 7 4 10q0 6 -19 9
q-205 31 -205 336q0 369 259 369q193 0 223 -171q7 -39 7 -84q-28 4 -57 4q-38 0 -65 -3l-1 18q-8 139 -107 139q-70 0 -102 -60q-34 -64 -34 -210q0 -120 23 -175q31 -71 110 -71q113 0 116 156q36 -8 77 -8q16 0 41 4v-15z" />
    <glyph glyph-name="Egrave" unicode="&#xc8;" horiz-adv-x="522" 
d="M340 735q-16 2 -43 2q-20 0 -40 -2q-39 50 -121 146q27 2 66 2q38 0 71 -2q53 -121 67 -146zM461 0q-69 4 -182 4q-111 0 -204 -4q3 138 3 327q0 188 -3 366q85 -3 183 -3q102 0 193 3q-3 -33 -3 -53q0 -26 3 -52q-104 4 -226 4q-16 0 -21 -2.5t-6 -14.5q-4 -45 -4 -138
v-22q0 -18 23 -18h18q83 0 205 4q-2 -25 -2 -56q0 -32 2 -50q-76 4 -172 4h-31q-18 -1 -21 -1q-22 0 -22 -19v-18q0 -74 2 -139q0 -13 4.5 -16t20.5 -3q133 0 240 5q-2 -25 -2 -57q0 -33 2 -51z" />
    <glyph glyph-name="Eacute" unicode="&#xc9;" horiz-adv-x="522" 
d="M403 874q-46 -51 -120 -143q-27 3 -38 3q-30 0 -52 -3q8 22 71 143q34 3 70 3q40 0 69 -3zM461 0q-69 4 -182 4q-111 0 -204 -4q3 138 3 327q0 188 -3 366q85 -3 183 -3q102 0 193 3q-3 -33 -3 -53q0 -26 3 -52q-104 4 -226 4q-16 0 -21 -2.5t-6 -14.5q-4 -45 -4 -138
v-22q0 -18 23 -18h18q83 0 205 4q-2 -25 -2 -56q0 -32 2 -50q-76 4 -172 4h-31q-18 -1 -21 -1q-22 0 -22 -19v-18q0 -74 2 -139q0 -13 4.5 -16t20.5 -3q133 0 240 5q-2 -25 -2 -57q0 -33 2 -51z" />
    <glyph glyph-name="Ecircumflex" unicode="&#xca;" horiz-adv-x="522" 
d="M426 734q-30 3 -52 3q-14 0 -44 -3q-14 21 -43 53q-1 1 -9 14q-5 9 -11 9t-11.5 -8.5t-10.5 -15.5q-29 -32 -42 -52q-18 3 -39 3q-28 0 -57 -3q39 52 102 143q36 -4 59 -4t56 4q42 -59 102 -143zM461 0q-69 4 -182 4q-111 0 -204 -4q3 138 3 327q0 188 -3 366
q85 -3 183 -3q102 0 193 3q-3 -33 -3 -53q0 -26 3 -52q-104 4 -226 4q-16 0 -21 -2.5t-6 -14.5q-4 -45 -4 -138v-22q0 -18 23 -18h18q83 0 205 4q-2 -25 -2 -56q0 -32 2 -50q-76 4 -172 4h-31q-18 -1 -21 -1q-22 0 -22 -19v-18q0 -74 2 -139q0 -13 4.5 -16t20.5 -3
q133 0 240 5q-2 -25 -2 -57q0 -33 2 -51z" />
    <glyph glyph-name="Edieresis" unicode="&#xcb;" horiz-adv-x="522" 
d="M415 749q-20 3 -53 3t-58 -3q2 19 2 53q0 35 -2 58q25 -3 59 -3q32 0 52 3q-2 -23 -2 -58q0 -34 2 -53zM219 749q-18 2 -57 2q-37 0 -55 -2q2 20 2 54t-2 57q11 -1 58 -1q44 0 54 1q-2 -19 -2 -54q0 -38 2 -57zM461 0q-69 4 -182 4q-111 0 -204 -4q3 138 3 327
q0 188 -3 366q85 -3 183 -3q102 0 193 3q-3 -33 -3 -53q0 -26 3 -52q-104 4 -226 4q-16 0 -21 -2.5t-6 -14.5q-4 -45 -4 -138v-22q0 -18 23 -18h18q83 0 205 4q-2 -25 -2 -56q0 -32 2 -50q-76 4 -172 4h-31q-18 -1 -21 -1q-22 0 -22 -19v-18q0 -74 2 -139q0 -13 4.5 -16
t20.5 -3q133 0 240 5q-2 -25 -2 -57q0 -33 2 -51z" />
    <glyph glyph-name="Igrave" unicode="&#xcc;" horiz-adv-x="277" 
d="M203 740q-16 2 -43 2q-19 0 -39 -2q-29 37 -122 146q41 3 66 3q22 0 71 -3q53 -121 67 -146zM201 0q-28 5 -59 5q-30 0 -66 -5q2 108 2 326q0 215 -2 368q30 -3 62 -3q28 0 63 3l-2 -363q0 -185 2 -331z" />
    <glyph glyph-name="Iacute" unicode="&#xcd;" horiz-adv-x="277" 
d="M275 879q-90 -100 -119 -143q-27 3 -39 3q-30 0 -52 -3q6 16 72 143q46 4 69 4q30 0 69 -4zM201 0q-28 5 -59 5q-30 0 -66 -5q2 108 2 326q0 215 -2 368q30 -3 62 -3q28 0 63 3l-2 -363q0 -185 2 -331z" />
    <glyph glyph-name="Icircumflex" unicode="&#xce;" horiz-adv-x="277" 
d="M298 734q-30 3 -52 3q-15 0 -45 -3q-14 22 -42 52q-1 1 -10 15q-5 9 -11 9t-12 -9q-8 -14 -9 -15q-29 -32 -42 -52q-18 3 -40 3q-27 0 -56 -3q39 52 101 143q37 -4 59 -4t57 4q42 -59 102 -143zM201 0q-28 5 -59 5q-30 0 -66 -5q2 108 2 326q0 215 -2 368q30 -3 62 -3
q28 0 63 3l-2 -363q0 -185 2 -331z" />
    <glyph glyph-name="Idieresis" unicode="&#xcf;" horiz-adv-x="277" 
d="M293 750q-20 3 -54 3q-33 0 -58 -3q2 19 2 53q0 35 -2 58q25 -3 59 -3q33 0 53 3q-2 -23 -2 -58q0 -34 2 -53zM97 750q-18 2 -57 2q-38 0 -56 -2q2 20 2 54t-2 57q22 -2 58 -2q35 0 55 2q-3 -28 -3 -55q0 -28 3 -56zM201 0q-28 5 -59 5q-30 0 -66 -5q2 108 2 326
q0 215 -2 368q30 -3 62 -3q28 0 63 3l-2 -363q0 -185 2 -331z" />
    <glyph glyph-name="Eth" unicode="&#xd0;" horiz-adv-x="621" 
d="M571 342q0 -158 -61 -245q-68 -97 -205 -97q-30 0 -71.5 1.5t-65.5 1.5q-59 0 -93 -3q3 147 3 297q0 14 -12 14q-33 0 -48 -1q4 17 4 36t-4 38q32 -2 48 -2q12 0 12 13q0 122 -3 299q51 -3 82 -3q26 0 68 1.5t68 1.5q278 0 278 -352zM444 342q0 123 -33 183
q-41 74 -140 74h-49q-24 0 -24 -22q-2 -91 -2 -183q0 -13 14 -13q60 0 100 3q-3 -14 -3 -36q0 -23 3 -38q-33 2 -101 2q-13 0 -13 -12q0 -75 2 -166q1 -24 7.5 -31t32.5 -8h29q101 0 144 75q33 59 33 172z" />
    <glyph glyph-name="Ntilde" unicode="&#xd1;" horiz-adv-x="670" 
d="M500 863l-1 -12q-4 -48 -29 -78q-28 -34 -72 -34q-29 0 -74 22t-64 22q-33 0 -41 -46q-15 3 -31 3q-14 0 -35 -3l1 14q3 47 33 79t70 32q30 0 74.5 -22t63.5 -22q31 0 40 45q19 -3 34 -3q16 0 31 3zM595 694q-2 -114 -2 -358v-337q-34 6 -77 6q-40 0 -76 -6l-218 481
q-4 9 -23 59q-12 32 -17 32q-4 0 -4 -18q0 4 4 -25t4 -63v-139q0 -94 4 -327q-29 6 -54 6q-22 0 -61 -6q3 184 3 327t-3 368q37 -3 87 -3q45 0 74 3q137 -303 210 -459q6 -12 30 -77q4 -12 14 -25q3 0 3 12q0 1 -4 33.5t-4 54.5v99q0 80 -4 362q33 -4 57 -4q26 0 57 4z" />
    <glyph glyph-name="Ograve" unicode="&#xd2;" horiz-adv-x="620" 
d="M357 734q-16 2 -43 2q-19 0 -39 -2q-37 48 -122 147q27 2 66 2q38 0 71 -2q27 -62 67 -147zM571 342q0 -184 -65 -269.5t-195 -85.5q-261 0 -261 358q0 359 261 359q131 0 195.5 -88t64.5 -274zM448 340q0 269 -137 269q-71 0 -103 -58q-35 -63 -35 -212q0 -257 137 -257
q138 0 138 258z" />
    <glyph glyph-name="Oacute" unicode="&#xd3;" horiz-adv-x="620" 
d="M469 874q-46 -51 -120 -143q-27 3 -38 3q-30 0 -52 -3q6 16 72 143q34 3 69 3q40 0 69 -3zM571 342q0 -184 -65 -269.5t-195 -85.5q-261 0 -261 358q0 359 261 359q131 0 195.5 -88t64.5 -274zM448 340q0 269 -137 269q-71 0 -103 -58q-35 -63 -35 -212q0 -257 137 -257
q138 0 138 258z" />
    <glyph glyph-name="Ocircumflex" unicode="&#xd4;" horiz-adv-x="620" 
d="M463 733q-30 3 -52 3q-14 0 -44 -3q-14 21 -43 53l-10 14q-5 9 -11 9t-12 -9q-8 -14 -9 -15q-29 -32 -42 -52q-18 3 -40 3q-27 0 -56 -3q39 52 102 143q31 -3 58 -3t57 3q42 -59 102 -143zM571 342q0 -184 -65 -269.5t-195 -85.5q-261 0 -261 358q0 359 261 359
q131 0 195.5 -88t64.5 -274zM448 340q0 269 -137 269q-71 0 -103 -58q-35 -63 -35 -212q0 -257 137 -257q138 0 138 258z" />
    <glyph glyph-name="Otilde" unicode="&#xd5;" horiz-adv-x="620" 
d="M473 869l-1 -12q-4 -48 -29 -78q-27 -33 -71 -33q-29 0 -74.5 21.5t-64.5 21.5q-33 0 -41 -46q-15 3 -30 3q-14 0 -35 -3l1 14q3 47 33 79t70 32q30 0 74.5 -22t63.5 -22q31 0 40 45q19 -3 34 -3t30 3zM571 342q0 -184 -65 -269.5t-195 -85.5q-261 0 -261 358
q0 359 261 359q131 0 195.5 -88t64.5 -274zM448 340q0 269 -137 269q-71 0 -103 -58q-35 -63 -35 -212q0 -257 137 -257q138 0 138 258z" />
    <glyph glyph-name="Odieresis" unicode="&#xd6;" horiz-adv-x="620" 
d="M462 750q-20 3 -53 3t-58 -3q2 19 2 53q0 35 -2 58q25 -3 59 -3q32 0 52 3q-2 -23 -2 -58q0 -34 2 -53zM266 750q-18 2 -57 2q-37 0 -55 -2q2 20 2 54t-2 57q22 -2 58 -2q34 0 54 2q-2 -19 -2 -55q0 -37 2 -56zM571 342q0 -184 -65 -269.5t-195 -85.5q-261 0 -261 358
q0 359 261 359q131 0 195.5 -88t64.5 -274zM448 340q0 269 -137 269q-71 0 -103 -58q-35 -63 -35 -212q0 -257 137 -257q138 0 138 258z" />
    <glyph glyph-name="multiply" unicode="&#xd7;" horiz-adv-x="580" 
d="M504 406q-54 -55 -132 -134q-19 -19 -19 -22q0 -1 18 -19l132 -132q-43 -30 -67 -70q-42 45 -128 139q-15 17 -17 17q-1 0 -20 -19q-1 -1 -129 -138q-31 41 -66 68l134 134q17 17 17 20q0 2 -18 20l-133 133q43 35 68 69q84 -93 127 -138q5 -6 9.5 -12.5t9.5 -6.5
t10.5 6.5t9.5 12.5q62 64 128 139q24 -36 66 -67z" />
    <glyph glyph-name="Oslash" unicode="&#xd8;" horiz-adv-x="620" 
d="M571 342q0 -184 -65 -269.5t-195 -85.5q-95 0 -156 50q-10 8 -13 8q-4 0 -11 -10.5t-31 -48.5q-22 28 -46 40q16 22 42 57q7 9 7 15q0 3 -7 16q-47 89 -47 231q0 359 262 359q96 0 155 -47q11 -9 14 -9q4 0 11 10q25 37 30 47q24 -28 46 -37q-15 -22 -38 -55
q-8 -11 -8 -20q0 -4 5 -14q45 -86 45 -237zM405 544q0 -1 -8 13q-30 52 -86 52q-70 0 -102 -59q-34 -62 -34 -202q0 -50 10 -88q1 -9 4 -22q5 -16 7 -16l12 19q74 109 189 280q8 12 8 23zM447 338q0 76 -15 116q-6 15 -7 15q1 0 -12 -20q-63 -91 -188 -277q-8 -12 -8 -24
q0 -25 35 -46q32 -20 58 -20q137 0 137 256z" />
    <glyph glyph-name="Ugrave" unicode="&#xd9;" horiz-adv-x="616" 
d="M357 734q-16 2 -43 2q-20 0 -40 -2q-47 61 -121 147q27 2 66 2q38 0 71 -2q27 -62 67 -147zM542 224q0 -237 -235 -237q-231 0 -231 232v7q0 42 1 128.5t1 132.5q0 109 -2 207q34 -4 65 -4q33 0 59 4q-3 -102 -3 -260q0 -73 2 -213q2 -132 111 -132q60 0 85 34
q24 31 25 102q2 108 2 225q0 153 -3 244q31 -4 62 -4q36 0 61 4q-2 -74 -2 -184q0 -47 1 -140.5t1 -140.5v-5z" />
    <glyph glyph-name="Uacute" unicode="&#xda;" horiz-adv-x="616" 
d="M447 874q-46 -51 -120 -143q-27 3 -38 3q-31 0 -53 -3q6 16 72 143q34 3 70 3q40 0 69 -3zM542 224q0 -237 -235 -237q-231 0 -231 232v7q0 42 1 128.5t1 132.5q0 109 -2 207q34 -4 65 -4q33 0 59 4q-3 -102 -3 -260q0 -73 2 -213q2 -132 111 -132q60 0 85 34
q24 31 25 102q2 108 2 225q0 153 -3 244q31 -4 62 -4q36 0 61 4q-2 -74 -2 -184q0 -47 1 -140.5t1 -140.5v-5z" />
    <glyph glyph-name="Ucircumflex" unicode="&#xdb;" horiz-adv-x="616" 
d="M465 734q-30 3 -52 3q-14 0 -44 -3q-14 21 -43 53q-1 1 -9 14q-5 9 -11 9t-11.5 -8.5t-10.5 -15.5q-29 -32 -42 -52q-18 3 -39 3q-28 0 -57 -3q39 52 102 143q33 -4 59 -4q24 0 56 4q42 -59 102 -143zM542 224q0 -237 -235 -237q-231 0 -231 232v7q0 42 1 128.5t1 132.5
q0 109 -2 207q34 -4 65 -4q33 0 59 4q-3 -102 -3 -260q0 -73 2 -213q2 -132 111 -132q60 0 85 34q24 31 25 102q2 108 2 225q0 153 -3 244q31 -4 62 -4q36 0 61 4q-2 -74 -2 -184q0 -47 1 -140.5t1 -140.5v-5z" />
    <glyph glyph-name="Udieresis" unicode="&#xdc;" horiz-adv-x="616" 
d="M461 749q-20 3 -53 3t-58 -3q2 19 2 54t-2 58q25 -3 59 -3q32 0 52 3q-2 -23 -2 -58t2 -54zM265 750q-18 2 -57 2q-37 0 -55 -2q2 20 2 54t-2 57q22 -2 58 -2q34 0 54 2q-2 -19 -2 -55q0 -37 2 -56zM542 224q0 -237 -235 -237q-231 0 -231 232v7q0 42 1 128.5t1 132.5
q0 109 -2 207q34 -4 65 -4q33 0 59 4q-3 -102 -3 -260q0 -73 2 -213q2 -132 111 -132q60 0 85 34q24 31 25 102q2 108 2 225q0 153 -3 244q31 -4 62 -4q36 0 61 4q-2 -74 -2 -184q0 -47 1 -140.5t1 -140.5v-5z" />
    <glyph glyph-name="Yacute" unicode="&#xdd;" horiz-adv-x="557" 
d="M415 874q-90 -100 -119 -143q-27 3 -39 3q-30 0 -52 -3q6 16 72 143q46 4 69 4q30 0 69 -4zM555 694q-77 -143 -198 -379q-21 -44 -21 -98q0 -14 3 -217q-28 5 -54 5q-23 0 -59 -5q2 136 2 214q0 56 -21 100q-40 83 -196 380q34 -4 64 -4q25 0 60 4q37 -80 128 -253
q7 -13 15 -44q4 -14 9 -14q4 0 8 14q6 22 19 45q85 156 127 252q32 -4 53 -4q20 0 61 4z" />
    <glyph glyph-name="Thorn" unicode="&#xde;" horiz-adv-x="565" 
d="M528 363q0 -214 -241 -214h-37q-26 1 -36 1q-17 0 -17 -17v-14q0 -38 1 -66q2 -37 2 -53q-32 5 -61 5q-30 0 -62 -5q3 139 3 336q0 182 -3 358q31 -5 60 -5q30 0 63 5q-1 -49 -1 -100q0 -14 17 -14q67 1 84 1q110 0 169 -56t59 -162zM404 362q0 55 -29 88q-32 35 -92 35
q-12 0 -67 -2q-17 -1 -18 -16q-2 -50 -2 -146v-56q0 -20 15 -20q31 -1 50 -1q77 0 110 28.5t33 89.5z" />
    <glyph glyph-name="germandbls" unicode="&#xdf;" horiz-adv-x="566" 
d="M531 197q0 -98 -53.5 -153t-150.5 -55q-65 0 -107 20q16 33 18 70v11q35 -19 74 -19q99 0 99 130q0 152 -160 157h-21q4 20 4 43t-4 40q11 -1 25 0q55 3 79 26q28 27 28 78q0 87 -81 87q-53 0 -73 -35q-17 -29 -18 -97q-3 -238 -3 -273q0 -140 3 -227q-27 5 -58 5
q-32 0 -60 -5q3 59 3 184q0 23 -1.5 149.5t-1.5 149.5q0 229 210 229q93 0 144 -44.5t51 -122.5q0 -87 -85 -124q-5 -2 -26 -6q-14 -3 -14 -8t15 -7q25 -4 26 -4q138 -36 138 -199z" />
    <glyph glyph-name="agrave" unicode="&#xe0;" horiz-adv-x="520" 
d="M323 563q-16 2 -43 2q-20 0 -40 -2q-39 50 -121 146q27 2 66 2q38 0 71 -2q53 -121 67 -146zM463 0q-16 1 -36 1q-52 0 -83 -6q-6 33 -6 54q0 16 -4 16q-1 0 -11 -18q-34 -59 -121 -59q-73 0 -113.5 39.5t-40.5 108.5q0 100 87 137q45 19 169 29q29 2 29 38v12
q0 80 -78 80q-79 0 -82 -61q0 5 1 -19q-19 3 -42 3q-32 0 -62 -6q0 4 -1 11.5t-1 9.5q0 71 55 109q51 35 137 35q160 0 181 -108q8 -41 8 -112v-157q1 -74 14 -137zM336 238q0 7 -5 7q3 0 -8.5 -2.5t-39.5 -5.5q-38 -4 -54 -8q-68 -18 -68 -88q0 -59 63 -66q10 -1 12 -1
q79 0 93 71q5 26 5 61q0 4 1 15t1 17z" />
    <glyph glyph-name="aacute" unicode="&#xe1;" horiz-adv-x="520" 
d="M397 702q-90 -100 -119 -143q-27 3 -39 3q-30 0 -52 -3q6 16 72 143q46 4 69 4q30 0 69 -4zM463 0q-16 1 -36 1q-52 0 -83 -6q-6 33 -6 54q0 16 -4 16q-1 0 -11 -18q-34 -59 -121 -59q-73 0 -113.5 39.5t-40.5 108.5q0 100 87 137q45 19 169 29q29 2 29 38v12
q0 80 -78 80q-79 0 -82 -61q0 5 1 -19q-19 3 -42 3q-32 0 -62 -6q0 4 -1 11.5t-1 9.5q0 71 55 109q51 35 137 35q160 0 181 -108q8 -41 8 -112v-157q1 -74 14 -137zM336 238q0 7 -5 7q3 0 -8.5 -2.5t-39.5 -5.5q-38 -4 -54 -8q-68 -18 -68 -88q0 -59 63 -66q10 -1 12 -1
q79 0 93 71q5 26 5 61q0 4 1 15t1 17z" />
    <glyph glyph-name="acircumflex" unicode="&#xe2;" horiz-adv-x="520" 
d="M412 562q-30 3 -52 3q-14 0 -44 -3q-12 18 -43 52q-1 1 -9 15q-5 9 -11 9t-11.5 -8.5t-10.5 -15.5q-29 -32 -42 -52q-18 3 -39 3q-28 0 -57 -3q39 52 102 142q29 -2 60 -2q30 0 55 2q42 -58 102 -142zM463 0q-16 1 -36 1q-52 0 -83 -6q-6 33 -6 54q0 16 -4 16
q-1 0 -11 -18q-34 -59 -121 -59q-73 0 -113.5 39.5t-40.5 108.5q0 100 87 137q45 19 169 29q29 2 29 38v12q0 80 -78 80q-79 0 -82 -61q0 5 1 -19q-19 3 -42 3q-32 0 -62 -6q0 4 -1 11.5t-1 9.5q0 71 55 109q51 35 137 35q160 0 181 -108q8 -41 8 -112v-157q1 -74 14 -137z
M336 238q0 7 -5 7q3 0 -8.5 -2.5t-39.5 -5.5q-38 -4 -54 -8q-68 -18 -68 -88q0 -59 63 -66q10 -1 12 -1q79 0 93 71q5 26 5 61q0 4 1 15t1 17z" />
    <glyph glyph-name="atilde" unicode="&#xe3;" horiz-adv-x="520" 
d="M430 695l-1 -12q-4 -48 -29 -78q-27 -34 -71 -34q-29 0 -74.5 21.5t-64.5 21.5q-32 0 -40 -45q-10 2 -31 2t-35 -2l1 13q4 47 33.5 79t69.5 32q30 0 74.5 -22t63.5 -22q31 0 40 46q19 -3 34 -3t30 3zM463 0q-16 1 -36 1q-52 0 -83 -6q-6 33 -6 54q0 16 -4 16
q-1 0 -11 -18q-34 -59 -121 -59q-73 0 -113.5 39.5t-40.5 108.5q0 100 87 137q45 19 169 29q29 2 29 38v12q0 80 -78 80q-79 0 -82 -61q0 5 1 -19q-19 3 -42 3q-32 0 -62 -6q0 4 -1 11.5t-1 9.5q0 71 55 109q51 35 137 35q160 0 181 -108q8 -41 8 -112v-157q1 -74 14 -137z
M336 238q0 7 -5 7q3 0 -8.5 -2.5t-39.5 -5.5q-38 -4 -54 -8q-68 -18 -68 -88q0 -59 63 -66q10 -1 12 -1q79 0 93 71q5 26 5 61q0 4 1 15t1 17z" />
    <glyph glyph-name="adieresis" unicode="&#xe4;" horiz-adv-x="520" 
d="M412 584q-20 3 -53 3q-34 0 -59 -3q2 19 2 53q0 35 -2 58q25 -3 60 -3q32 0 52 3q-2 -23 -2 -58q0 -34 2 -53zM216 584q-18 2 -57 2q-38 0 -56 -2q2 20 2 54t-2 57q22 -2 59 -2q34 0 54 2q-3 -28 -3 -55q0 -28 3 -56zM463 0q-16 1 -36 1q-52 0 -83 -6q-6 33 -6 54
q0 16 -4 16q-1 0 -11 -18q-34 -59 -121 -59q-73 0 -113.5 39.5t-40.5 108.5q0 100 87 137q45 19 169 29q29 2 29 38v12q0 80 -78 80q-79 0 -82 -61q0 5 1 -19q-19 3 -42 3q-32 0 -62 -6q0 4 -1 11.5t-1 9.5q0 71 55 109q51 35 137 35q160 0 181 -108q8 -41 8 -112v-157
q1 -74 14 -137zM336 238q0 7 -5 7q3 0 -8.5 -2.5t-39.5 -5.5q-38 -4 -54 -8q-68 -18 -68 -88q0 -59 63 -66q10 -1 12 -1q79 0 93 71q5 26 5 61q0 4 1 15t1 17z" />
    <glyph glyph-name="aring" unicode="&#xe5;" horiz-adv-x="520" 
d="M357 649q0 -42 -29.5 -72t-70.5 -30q-40 0 -69 29t-29 73q0 42 28.5 71.5t69.5 29.5t70.5 -29.5t29.5 -71.5zM463 0q-16 1 -36 1q-52 0 -83 -6q-6 33 -6 54q0 16 -4 16q-1 0 -11 -18q-34 -59 -121 -59q-73 0 -113.5 39.5t-40.5 108.5q0 100 87 137q45 19 169 29
q29 2 29 38v12q0 80 -78 80q-79 0 -82 -61q0 5 1 -19q-19 3 -42 3q-32 0 -62 -6q0 4 -1 11.5t-1 9.5q0 71 55 109q51 35 137 35q160 0 181 -108q8 -41 8 -112v-157q1 -74 14 -137zM310 649q0 23 -15 38.5t-37 15.5q-21 0 -36.5 -16t-15.5 -39t15 -38.5t36 -15.5
q22 0 37.5 16t15.5 39zM336 238q0 7 -5 7q3 0 -8.5 -2.5t-39.5 -5.5q-38 -4 -54 -8q-68 -18 -68 -88q0 -59 63 -66q10 -1 12 -1q79 0 93 71q5 26 5 61q0 4 1 15t1 17z" />
    <glyph glyph-name="ae" unicode="&#xe6;" horiz-adv-x="794" 
d="M751 148q-23 -156 -200 -156q-52 0 -86 15q-25 10 -74 46q-2 1 -5 7.5t-6 6.5l-9 -15q-37 -64 -169 -64q-73 0 -113.5 39.5t-40.5 108.5q0 100 87 137q45 19 169 29q29 2 29 38v12q0 80 -78 80q-44 0 -62.5 -16t-18.5 -57v-7q-19 3 -42 3q-32 0 -62 -6q0 4 -1 11.5
t-1 9.5q0 71 55 109q51 35 137 35q80 0 121 -38q2 -2 16 -18q8 -8 13 -8t13 10q10 14 15 18q44 38 114 38q96 0 145.5 -65t49.5 -183q0 -18 -2 -38q-69 5 -276 5q-16 0 -19.5 -4t-3.5 -19q0 -61 28 -99t79 -38q82 0 94 79q44 -7 79 -7q11 0 25 1zM636 327q0 8 -1 15
q-13 89 -89 89q-39 0 -66.5 -30.5t-34.5 -76.5q-1 -7 -1 -11q0 -13 15 -13q5 0 18 -1h19q61 0 120 4q20 1 20 24zM336 235v3q0 7 -5 7q3 0 -8.5 -2.5t-39.5 -5.5q-38 -4 -54 -8q-68 -18 -68 -88q0 -32 23 -50t55 -18t57.5 18.5t32.5 53.5q5 26 5 61q0 5 1 14.5t1 14.5z" />
    <glyph glyph-name="ccedilla" unicode="&#xe7;" horiz-adv-x="482" 
d="M446 323q-32 4 -54 4q-31 0 -61 -6l-1 17q-5 90 -73 90q-50 0 -71 -43t-21 -141q0 -170 89 -170q81 0 82 111q32 -9 66 -9q23 0 42 4v-17q-11 -155 -149 -174q-33 -5 -33 -26q0 -4 5 -4q1 0 8 1.5t12 1.5q29 0 50.5 -18.5t21.5 -48.5q0 -36 -33.5 -59.5t-90.5 -23.5
q-39 0 -83 15q10 19 13 46q39 -11 62 -11t37 10t14 23q0 25 -31 25q-13 0 -27 -5q-15 9 -31 12q5 11 19 34q10 18 10 22q0 6 -11 8q-160 29 -160 251q0 131 54 202t161 71q173 0 183 -174z" />
    <glyph glyph-name="egrave" unicode="&#xe8;" horiz-adv-x="505" 
d="M330 563q-16 2 -43 2q-20 0 -40 -2q-39 50 -121 146q27 2 66 2q38 0 71 -2q53 -121 67 -146zM464 148q-9 -71 -55 -114q-51 -48 -145 -48q-218 0 -218 252q0 127 58 202.5t162 75.5q96 0 145.5 -65t49.5 -183q0 -21 -2 -41q-40 4 -160 5h-118q-14 0 -17.5 -3.5
t-3.5 -16.5q0 -61 27.5 -99t78.5 -38q83 0 95 79q39 -6 74 -7q11 0 29 1zM350 327q0 8 -1 15q-13 89 -90 89q-41 0 -68 -32.5t-33 -79.5v-9q1 -10 14 -10h66q40 0 100 4q12 3 12 23z" />
    <glyph glyph-name="eacute" unicode="&#xe9;" horiz-adv-x="505" 
d="M402 702q-46 -51 -120 -143q-27 3 -38 3q-30 0 -52 -3q8 22 71 143q46 4 70 4q30 0 69 -4zM464 148q-9 -71 -55 -114q-51 -48 -145 -48q-218 0 -218 252q0 127 58 202.5t162 75.5q96 0 145.5 -65t49.5 -183q0 -21 -2 -41q-40 4 -160 5h-118q-14 0 -17.5 -3.5t-3.5 -16.5
q0 -61 27.5 -99t78.5 -38q83 0 95 79q39 -6 74 -7q11 0 29 1zM350 327q0 8 -1 15q-13 89 -90 89q-41 0 -68 -32.5t-33 -79.5v-9q1 -10 14 -10h66q40 0 100 4q12 3 12 23z" />
    <glyph glyph-name="ecircumflex" unicode="&#xea;" horiz-adv-x="505" 
d="M417 562q-30 3 -52 3q-15 0 -45 -3q-14 22 -42 52q-1 1 -10 15q-5 9 -11 9t-12 -9q-8 -14 -9 -15q-29 -32 -42 -52q-18 3 -40 3q-27 0 -56 -3q39 52 101 142q26 -3 59 -3t57 3q42 -58 102 -142zM464 148q-9 -71 -55 -114q-51 -48 -145 -48q-218 0 -218 252
q0 127 58 202.5t162 75.5q96 0 145.5 -65t49.5 -183q0 -21 -2 -41q-40 4 -160 5h-118q-14 0 -17.5 -3.5t-3.5 -16.5q0 -61 27.5 -99t78.5 -38q83 0 95 79q39 -6 74 -7q11 0 29 1zM350 327q0 8 -1 15q-13 89 -90 89q-41 0 -68 -32.5t-33 -79.5v-9q1 -10 14 -10h66q40 0 100 4
q12 3 12 23z" />
    <glyph glyph-name="edieresis" unicode="&#xeb;" horiz-adv-x="505" 
d="M413 584q-20 3 -53 3t-58 -3q2 19 2 53q0 35 -2 58q25 -3 59 -3q32 0 52 3q-2 -23 -2 -58q0 -34 2 -53zM217 584q-18 2 -57 2q-38 0 -56 -2q2 20 2 54t-2 57q22 -2 59 -2q34 0 54 2q-2 -19 -2 -55q0 -37 2 -56zM464 148q-9 -71 -55 -114q-51 -48 -145 -48
q-218 0 -218 252q0 127 58 202.5t162 75.5q96 0 145.5 -65t49.5 -183q0 -21 -2 -41q-40 4 -160 5h-118q-14 0 -17.5 -3.5t-3.5 -16.5q0 -61 27.5 -99t78.5 -38q83 0 95 79q39 -6 74 -7q11 0 29 1zM350 327q0 8 -1 15q-13 89 -90 89q-41 0 -68 -32.5t-33 -79.5v-9
q1 -10 14 -10h66q40 0 100 4q12 3 12 23z" />
    <glyph glyph-name="igrave" unicode="&#xec;" 
d="M194 563q-16 2 -44 2q-19 0 -39 -2q-29 37 -122 146q27 2 67 2q38 0 71 -2q53 -121 67 -146zM191 0q-30 5 -57 5q-34 0 -62 -5q3 99 3 247q0 162 -3 253q29 -5 61 -5q29 0 58 5q-3 -114 -3 -253q0 -147 3 -247z" />
    <glyph glyph-name="iacute" unicode="&#xed;" 
d="M268 702q-46 -51 -120 -143q-27 3 -39 3q-30 0 -52 -3q6 16 72 143q46 4 69 4q31 0 70 -4zM191 0q-30 5 -57 5q-34 0 -62 -5q3 99 3 247q0 135 -3 253q29 -5 61 -5q29 0 58 5q-3 -114 -3 -253q0 -147 3 -247z" />
    <glyph glyph-name="icircumflex" unicode="&#xee;" 
d="M291 562q-30 3 -53 3q-14 0 -44 -3q-14 22 -42 52q-1 1 -10 15q-5 9 -11 9t-12 -9q-8 -14 -9 -15q-29 -32 -42 -52q-18 3 -40 3q-28 0 -57 -3q39 52 102 142q26 -3 59 -3t57 3q42 -58 102 -142zM191 0q-30 5 -57 5q-34 0 -62 -5q3 99 3 247q0 162 -3 253q29 -5 61 -5
q29 0 58 5q-3 -114 -3 -253q0 -147 3 -247z" />
    <glyph glyph-name="idieresis" unicode="&#xef;" 
d="M284 584q-20 3 -53 3t-58 -3q2 19 2 53q0 35 -2 58q25 -3 59 -3q32 0 52 3q-2 -23 -2 -58q0 -34 2 -53zM88 584q-18 2 -57 2q-37 0 -55 -2q2 20 2 54t-2 57q22 -2 58 -2q34 0 54 2q-2 -19 -2 -55q0 -37 2 -56zM191 0q-30 5 -57 5q-34 0 -62 -5q3 99 3 247q0 135 -3 253
q29 -5 61 -5q29 0 58 5q-3 -114 -3 -253q0 -147 3 -247z" />
    <glyph glyph-name="eth" unicode="&#xf0;" horiz-adv-x="536" 
d="M479 278q0 -292 -219 -292q-105 0 -160.5 65.5t-55.5 187.5q0 114 52.5 180t145.5 66q51 0 80 -32q11 -12 16 -12t5 4l-7 18q-28 72 -69 113q-7 7 -10 7l-7 -5l-65 -49q-15 27 -40 56l47 32q9 2 9 6l-12 4q-25 9 -50 9q-26 0 -63 -14q18 39 24 89q30 11 63 11
q58 0 116 -29q8 -4 11 -4q4 0 11 6l56 45q20 -36 43 -59l-47 -29q-8 -5 -8 -7q0 -1 7 -8q61 -59 95 -158q32 -94 32 -201zM358 255q0 81 -20.5 111t-76.5 30q-96 0 -96 -156q0 -162 97 -162q96 0 96 177z" />
    <glyph glyph-name="ntilde" unicode="&#xf1;" horiz-adv-x="544" 
d="M430 695l-1 -12q-4 -48 -29 -78q-27 -34 -71 -34q-29 0 -74.5 21.5t-64.5 21.5q-32 0 -40 -45q-10 2 -31 2t-35 -2l1 13q4 47 33.5 79t69.5 32q30 0 74.5 -22t63.5 -22q31 0 40 46q19 -3 34 -3t30 3zM474 0q-31 6 -59 6t-60 -6q1 37 1 174q0 103 -1 161q-2 87 -66 87
q-39 0 -66 -28q-32 -34 -33 -97q-1 -88 -1 -92q0 -36 1 -109t1 -96q-21 5 -56 5q-34 0 -63 -5q1 47 1 155q0 211 -2 263q-2 49 -10 82q37 -5 64 -5q29 0 58 5q3 -15 3 -43q0 -6 -1 -18q-2 -15 -2 -19q0 -8 2 -8q1 0 11 18q3 7 10 20q43 61 129 61q67 0 102.5 -40t35.5 -110
v-7v-71q-1 -52 -1 -83q0 -132 2 -200z" />
    <glyph glyph-name="ograve" unicode="&#xf2;" horiz-adv-x="521" 
d="M325 563q-16 2 -43 2q-20 0 -40 -2q-39 50 -121 146q27 2 66 2q38 0 71 -2q53 -121 67 -146zM475 251q0 -128 -54 -196.5t-157 -68.5q-216 0 -216 263q0 126 54.5 195.5t159.5 69.5q104 0 158.5 -68t54.5 -195zM357 250q0 95 -22.5 136t-72.5 41t-72 -40
q-24 -43 -24 -142q0 -172 96 -172q95 0 95 177z" />
    <glyph glyph-name="oacute" unicode="&#xf3;" horiz-adv-x="521" 
d="M397 702q-90 -100 -119 -143q-27 3 -39 3q-30 0 -52 -3q6 16 72 143q46 4 69 4q30 0 69 -4zM475 251q0 -128 -54 -196.5t-157 -68.5q-216 0 -216 263q0 126 54.5 195.5t159.5 69.5q104 0 158.5 -68t54.5 -195zM357 250q0 95 -22.5 136t-72.5 41t-72 -40q-24 -43 -24 -142
q0 -172 96 -172q95 0 95 177z" />
    <glyph glyph-name="ocircumflex" unicode="&#xf4;" horiz-adv-x="521" 
d="M416 562q-30 3 -52 3q-14 0 -44 -3q-12 18 -43 52q-1 1 -10 15q-5 9 -11 9t-12 -9q-8 -14 -9 -15q-29 -32 -42 -52q-18 3 -40 3q-27 0 -56 -3q39 52 101 142q22 -2 61 -2q36 0 55 2q42 -58 102 -142zM475 251q0 -128 -54 -196.5t-157 -68.5q-216 0 -216 263
q0 126 54.5 195.5t159.5 69.5q104 0 158.5 -68t54.5 -195zM357 250q0 95 -22.5 136t-72.5 41t-72 -40q-24 -43 -24 -142q0 -172 96 -172q95 0 95 177z" />
    <glyph glyph-name="otilde" unicode="&#xf5;" horiz-adv-x="521" 
d="M430 695l-1 -12q-4 -48 -29 -78q-27 -34 -71 -34q-29 0 -74.5 21.5t-64.5 21.5q-32 0 -40 -45q-10 2 -31 2t-35 -2l1 13q4 47 33.5 79t69.5 32q30 0 74.5 -22t63.5 -22q31 0 40 46q19 -3 34 -3t30 3zM475 251q0 -128 -54 -196.5t-157 -68.5q-216 0 -216 263
q0 126 54.5 195.5t159.5 69.5q104 0 158.5 -68t54.5 -195zM357 250q0 95 -22.5 136t-72.5 41t-72 -40q-24 -43 -24 -142q0 -172 96 -172q95 0 95 177z" />
    <glyph glyph-name="odieresis" unicode="&#xf6;" horiz-adv-x="521" 
d="M416 584q-20 3 -54 3q-33 0 -58 -3q2 19 2 53q0 35 -2 58q25 -3 59 -3q33 0 53 3q-2 -23 -2 -58q0 -34 2 -53zM220 584q-18 2 -57 2q-38 0 -56 -2q2 20 2 54t-2 57q22 -2 58 -2q35 0 55 2q-3 -28 -3 -55q0 -28 3 -56zM475 251q0 -128 -54 -196.5t-157 -68.5
q-216 0 -216 263q0 126 54.5 195.5t159.5 69.5q104 0 158.5 -68t54.5 -195zM357 250q0 95 -22.5 136t-72.5 41t-72 -40q-24 -43 -24 -142q0 -172 96 -172q95 0 95 177z" />
    <glyph glyph-name="divide" unicode="&#xf7;" horiz-adv-x="580" 
d="M356 461q0 -29 -19.5 -50t-47.5 -21t-48 20.5t-20 49.5t20 50t48 21t47.5 -20.5t19.5 -49.5zM540 214q-77 4 -208 4q-134 0 -292 -4q3 25 3 51q0 27 -3 51q123 -3 270 -3q144 0 230 3q-4 -25 -4 -51q0 -25 4 -51zM357 67q0 -29 -20 -49.5t-48 -20.5t-48 20.5t-20 49.5
t20 50t48 21t48 -21t20 -50z" />
    <glyph glyph-name="oslash" unicode="&#xf8;" horiz-adv-x="521" 
d="M474 251q0 -128 -53.5 -196.5t-157.5 -68.5q-71 0 -120 31q-9 6 -13 6q-6 0 -13 -9q-11 -16 -24 -34q-19 16 -44 38q2 2 31 36q8 9 8 15q0 3 -7 16q-34 62 -34 164q0 126 54.5 195.5t159.5 69.5q71 0 119 -32q11 -7 14 -7t10 9l22 33q4 -8 46 -37q-14 -17 -29 -36
q-8 -10 -8 -16q0 -5 5 -14q34 -63 34 -163zM324 386q0 2 -6 11q-19 30 -57 30q-51 0 -73 -37q-23 -40 -23 -136q0 -46 5 -66q4 -14 6 -14q3 5 11 16q60 84 131 182q6 7 6 14zM356 241q0 44 -5 65q-4 18 -6 18t-6 -8l-5 -10q-64 -87 -130 -180q-7 -10 -7 -16q0 -1 7 -10
q21 -27 57 -27q50 0 72.5 39t22.5 129z" />
    <glyph glyph-name="ugrave" unicode="&#xf9;" horiz-adv-x="545" 
d="M334 563q-16 2 -43 2q-19 0 -39 -2q-29 37 -122 146q27 2 66 2q38 0 71 -2q53 -121 67 -146zM483 1q-34 5 -65 5t-56 -5q-1 6 -1 39q0 4 1 19.5t1 22.5q0 8 -4 8q-1 0 -11 -22.5t-23 -35.5q-42 -42 -115 -42q-69 0 -104.5 42t-34.5 113q1 139 1 163q0 128 -2 194
q41 -6 63 -6q25 0 57 6q-3 -81 -3 -197q0 -48 2 -139q2 -87 66 -87q39 0 64 26t32 66q5 31 5 99q0 122 -2 232q33 -5 60 -5q23 0 59 5q-2 -54 -2 -190q0 -132 2 -190q3 -85 10 -121z" />
    <glyph glyph-name="uacute" unicode="&#xfa;" horiz-adv-x="545" 
d="M412 702q-46 -51 -120 -143q-27 3 -39 3q-30 0 -52 -3q6 16 72 143q46 4 69 4q31 0 70 -4zM483 1q-34 5 -65 5t-56 -5q-1 6 -1 39q0 4 1 19.5t1 22.5q0 8 -4 8q-1 0 -11 -22.5t-23 -35.5q-42 -42 -115 -42q-69 0 -104.5 42t-34.5 113q1 139 1 163q0 128 -2 194
q41 -6 63 -6q25 0 57 6q-3 -81 -3 -197q0 -48 2 -139q2 -87 66 -87q39 0 64 26t32 66q5 31 5 99q0 122 -2 232q33 -5 60 -5q23 0 59 5q-2 -54 -2 -190q0 -132 2 -190q3 -85 10 -121z" />
    <glyph glyph-name="ucircumflex" unicode="&#xfb;" horiz-adv-x="545" 
d="M432 562q-30 3 -53 3q-14 0 -44 -3q-14 22 -42 52q-1 1 -10 15q-5 9 -11 9t-12 -9q-8 -14 -9 -15q-29 -32 -42 -52q-18 3 -40 3q-28 0 -57 -3q39 52 102 142q21 -2 59 -2q37 0 57 2q42 -58 102 -142zM483 1q-34 5 -65 5t-56 -5q-1 6 -1 39q0 4 1 19.5t1 22.5q0 8 -4 8
q-1 0 -11 -22.5t-23 -35.5q-42 -42 -115 -42q-69 0 -104.5 42t-34.5 113q1 139 1 163q0 128 -2 194q41 -6 63 -6q25 0 57 6q-3 -81 -3 -197q0 -48 2 -139q2 -87 66 -87q39 0 64 26t32 66q5 31 5 99q0 122 -2 232q33 -5 60 -5q23 0 59 5q-2 -54 -2 -190q0 -132 2 -190
q3 -85 10 -121z" />
    <glyph glyph-name="udieresis" unicode="&#xfc;" horiz-adv-x="545" 
d="M423 584q-20 3 -54 3q-33 0 -58 -3q2 19 2 53q0 35 -2 58q25 -3 59 -3q33 0 53 3q-2 -23 -2 -58q0 -34 2 -53zM226 584q-18 2 -56 2t-56 -2q2 20 2 54t-2 57q22 -2 58 -2q34 0 54 2q-2 -19 -2 -55q0 -37 2 -56zM483 1q-34 5 -65 5t-56 -5q-1 6 -1 39q0 4 1 19.5t1 22.5
q0 8 -4 8q-1 0 -11 -22.5t-23 -35.5q-42 -42 -115 -42q-69 0 -104.5 42t-34.5 113q1 139 1 163q0 128 -2 194q41 -6 63 -6q25 0 57 6q-3 -81 -3 -197q0 -48 2 -139q2 -87 66 -87q39 0 64 26t32 66q5 31 5 99q0 122 -2 232q33 -5 60 -5q23 0 59 5q-2 -54 -2 -190
q0 -132 2 -190q3 -85 10 -121z" />
    <glyph glyph-name="yacute" unicode="&#xfd;" horiz-adv-x="467" 
d="M373 702q-90 -100 -119 -143q-27 3 -39 3q-30 0 -52 -3q6 16 72 143q46 4 69 4q30 0 69 -4zM452 500q-30 -90 -158 -504q-29 -93 -59 -134q-43 -56 -112 -56q-37 0 -80 10q4 22 4 46q0 19 -4 48q31 -10 60 -10q33 0 53 22t20 57q0 20 -25 101q-84 270 -136 420
q36 -3 69 -3q38 0 55 3q27 -106 86 -311q4 -18 10 -48q2 -7 6 -7t5 7q3 18 9 47q18 59 42 158q31 123 39 154q20 -4 52 -4q26 0 64 4z" />
    <glyph glyph-name="thorn" unicode="&#xfe;" horiz-adv-x="547" 
d="M500 262q0 -122 -40 -192q-48 -82 -146 -82q-74 0 -108 44q-1 2 -9 17q-6 12 -9 12q-2 0 -3 -4q0 -7 2.5 -35.5t2.5 -35.5l2 -174q-25 5 -55 5t-65 -5q3 191 3 411q0 277 -5 486q24 -2 62 -2q32 0 57 2q-1 -42 -3 -103q-2 -49 -2 -101v-48q0 -3 -2 -10t-2 -9q0 -8 4 -8
q3 0 12 15q40 66 128 66q176 0 176 -249zM380 251q0 91 -21.5 133t-71.5 42q-37 0 -68 -33q-24 -26 -27 -70q-3 -48 -3 -119q0 -64 12 -84q28 -46 81 -46q54 0 77 45q21 41 21 132z" />
    <glyph glyph-name="ydieresis" unicode="&#xff;" horiz-adv-x="467" 
d="M386 584q-20 3 -53 3t-58 -3q2 19 2 53q0 35 -2 58q25 -3 59 -3q32 0 52 3q-2 -23 -2 -58q0 -34 2 -53zM190 584q-18 2 -57 2q-37 0 -55 -2q2 20 2 54t-2 57q22 -2 58 -2q34 0 54 2q-2 -19 -2 -55q0 -37 2 -56zM452 500q-30 -90 -158 -504q-29 -93 -59 -134
q-43 -56 -112 -56q-37 0 -80 10q4 22 4 46q0 19 -4 48q31 -10 60 -10q33 0 53 22t20 57q0 20 -25 101q-84 270 -136 420q36 -3 69 -3q38 0 55 3q27 -106 86 -311q4 -18 10 -48q2 -7 6 -7t5 7q3 18 9 47q18 59 42 158q31 123 39 154q20 -4 52 -4q26 0 64 4z" />
    <glyph glyph-name="dotlessi" unicode="&#x131;" 
d="M191 0q-30 5 -57 5q-34 0 -62 -5q3 99 3 247q0 162 -3 253q29 -5 61 -5q29 0 58 5q-3 -114 -3 -253q0 -147 3 -247z" />
    <glyph glyph-name="Lslash" unicode="&#x141;" horiz-adv-x="465" 
d="M436 108q-4 -29 -4 -56q0 -28 3 -52q-78 4 -180 4q-103 0 -180 -4q3 157 3 241q0 4 1 14v14q0 6 -2 6q3 0 -11 -8q-21 -14 -46 -30q1 26 2 85q19 11 44 25q12 6 12 30q0 101 -3 317q37 -3 64 -3q31 0 60 3q-4 -140 -4 -237q0 -5 -1 -17t-1 -17q0 -6 3 -6q-1 0 14 9
q64 37 134 85q-2 -26 -2 -48q0 -20 2 -35q-74 -45 -138 -82q-11 -6 -11 -20q0 -27 2 -201q0 -22 20 -22h23q111 0 196 5z" />
    <glyph glyph-name="lslash" unicode="&#x142;" 
d="M245 513q-2 -23 -2 -40v-46l-44 -38q-9 -8 -9 -58q-1 -193 2 -331q-21 4 -57 4q-34 0 -63 -4q3 133 3 252q0 6 1 17v17q0 7 -3 7q2 0 -53 -46q1 18 3 57v16q-1 10 -1 14l43 36q10 8 10 25q0 124 -3 314q22 -3 57 -3q36 0 63 3q-1 -96 -2 -215q0 -7 -1 -14t-1 -9
q0 -4 5 -4q2 0 25 22t27 24z" />
    <glyph glyph-name="OE" unicode="&#x152;" horiz-adv-x="876" 
d="M816 0q-69 4 -183 4q-110 0 -203 -4v6q0 5 1 13t1 12q0 6 -4 6q-3 0 -11 -8t-10 -9q-43 -28 -96 -28q-261 0 -261 357q0 359 261 359q53 0 95 -28q3 -2 11.5 -11t10.5 -9q3 0 4 5q0 2 -1 9.5t-1 9.5v18q85 -3 182 -3q102 0 193 3q-3 -33 -3 -54q0 -24 3 -50
q-104 4 -225 4q-16 0 -20 -2q-7 -3 -8 -15q-4 -44 -4 -143v-24q0 -18 23 -18h20q82 0 203 4q-2 -25 -2 -55q0 -31 2 -49q-75 4 -170 4h-32q-18 -1 -22 -1q-22 0 -22 -19v-24q0 -48 3 -140q1 -19 25 -19q133 0 240 5q-3 -37 -3 -55q0 -23 3 -51zM429 336q0 101 -3 172
q-1 35 -14 54q-34 51 -101 51q-71 0 -103 -58q-35 -63 -35 -212q0 -257 137 -257q80 0 107 54q7 16 10 67q2 47 2 129z" />
    <glyph glyph-name="oe" unicode="&#x153;" horiz-adv-x="815" 
d="M774 148q-10 -72 -53 -113q-52 -49 -147 -49q-87 0 -136 46q-2 2 -11 16q-7 10 -12 10t-12 -10q-10 -15 -12 -17q-47 -45 -127 -45q-216 0 -216 263q0 126 54.5 195.5t159.5 69.5q87 0 136 -53q1 -1 11 -16q6 -10 11 -10q6 0 12 10q10 16 11 17q51 54 133 54
q96 0 145.5 -65t49.5 -183q0 -21 -2 -41q-41 4 -165 5h-111q-15 0 -19.5 -3t-4.5 -17q0 -61 28 -99t79 -38q83 0 95 79q39 -6 71 -7q12 0 32 1zM659 327q0 8 -1 15q-13 89 -89 89q-42 0 -72 -37.5t-30 -80.5q0 -13 15 -13q65 -1 60 -1q53 1 97 4q20 2 20 24zM357 250
q0 95 -22.5 136t-72.5 41t-72 -40q-24 -43 -24 -142q0 -172 96 -172q95 0 95 177z" />
    <glyph glyph-name="Scaron" unicode="&#x160;" horiz-adv-x="571" 
d="M447 876q-39 -52 -102 -143q-36 4 -57 4q-29 0 -58 -4q-42 59 -102 143q20 -2 52 -2q24 0 44 2q14 -21 43 -53q1 -1 9 -14q5 -9 11 -9t11.5 8.5t10.5 15.5q29 32 42 52q18 -3 39 -3q28 0 57 3zM525 193q0 -96 -66 -151.5t-174 -55.5q-100 0 -161 47q-65 50 -73 143
q-3 32 -2 57q22 -4 56 -4q35 0 62 5q-1 -26 0 -35q11 -115 128 -115q110 0 110 94q0 59 -68 93q-61 24 -123 49q-74 30 -110 70q-42 48 -42 122q0 81 60 136q63 59 166 59q90 0 150 -42q64 -44 71 -123q2 -28 2 -42q-1 -16 -1 -20q-21 5 -51 5q-37 0 -63 -6q0 11 -2 35
q-3 45 -33.5 70t-76.5 25q-104 0 -104 -91q0 -49 60 -80q17 -9 115 -46q71 -26 108 -58q62 -53 62 -141z" />
    <glyph glyph-name="scaron" unicode="&#x161;" horiz-adv-x="468" 
d="M393 704q-39 -52 -102 -142q-27 3 -57 3q-37 0 -59 -3q-42 58 -102 142q20 -2 52 -2q25 0 45 2q14 -22 42 -52q1 -1 10 -15q5 -9 11 -9t12 9q8 14 9 15q29 32 42 52q18 -3 39 -3q29 0 58 3zM424 148q0 -71 -49 -115q-52 -47 -145 -47q-190 0 -190 160v6q21 -4 50 -4
q27 0 52 5v-6q2 -78 91 -78q85 0 85 63q0 42 -69 66q-117 40 -128 45q-68 39 -68 120q0 64 48 108t130 44q98 0 145 -53q24 -27 31 -73q2 -14 2 -33q-23 4 -49 4q-22 0 -47 -4q-3 76 -80 76q-75 0 -75 -57q0 -31 30 -49q19 -12 71 -27q80 -23 111 -44q54 -38 54 -107z" />
    <glyph glyph-name="Ydieresis" unicode="&#x178;" horiz-adv-x="557" 
d="M431 749q-20 3 -54 3q-33 0 -58 -3q2 19 2 54q0 34 -2 57q25 -3 59 -3q33 0 53 3q-2 -23 -2 -57q0 -35 2 -54zM235 749q-27 3 -57 3q-29 0 -56 -3q2 20 2 55q0 34 -2 57q22 -2 58 -2q35 0 55 2q-3 -28 -3 -55q0 -29 3 -57zM555 694q-77 -143 -198 -379q-21 -44 -21 -98
q0 -14 3 -217q-28 5 -54 5q-23 0 -59 -5q2 136 2 214q0 56 -21 100q-40 83 -196 380q34 -4 64 -4q25 0 60 4q37 -80 128 -253q7 -13 15 -44q4 -14 9 -14q4 0 8 14q6 22 19 45q85 156 127 252q32 -4 53 -4q20 0 61 4z" />
    <glyph glyph-name="Zcaron" unicode="&#x17d;" horiz-adv-x="494" 
d="M400 876q-39 -52 -102 -143q-36 4 -57 4q-30 0 -59 -4q-42 59 -102 143q30 -3 52 -3q15 0 45 3q16 -25 42 -53l10 -14q5 -9 11 -9t12 9q8 14 9 15q29 32 42 52q18 -3 40 -3q28 0 57 3zM465 0q-173 4 -266 4q-124 0 -172 -4q2 19 2 48q0 26 -2 41q120 201 265 449
q2 4 24 32q19 25 19 29q0 6 -19 6h-44q7 0 -237 -7q2 15 2 46q0 33 -2 50q171 -3 247 -3q79 0 179 3v-19q1 -15 1 -22q0 -3 -1 -19v-21q-127 -212 -295 -498q-3 -5 -9.5 -12t-6.5 -11q0 -3 5 -4q-3 0 31 3q103 2 279 6q-4 -27 -4 -47q0 -23 4 -50z" />
    <glyph glyph-name="zcaron" unicode="&#x17e;" horiz-adv-x="435" 
d="M372 704q-39 -52 -102 -142q-27 3 -57 3q-36 0 -58 -3q-42 58 -102 142q20 -2 52 -2q24 0 44 2q12 -18 43 -52q1 -1 9 -15q5 -9 11 -9t11.5 8.5t10.5 15.5q29 32 42 52q18 -3 39 -3q28 0 57 3zM398 0q-95 4 -217 4q-98 0 -145 -4q2 17 2 39q0 21 -2 39q51 71 206 308
q3 5 16 17q10 11 10 14t-9 3q-4 0 -13 -1h-13h-39q-19 0 -140 -5q3 21 3 45q0 20 -3 41q139 -4 202 -4q76 0 134 4q2 -22 2 -36q0 -18 -2 -37q-33 -48 -204 -308q-6 -8 -20 -24q-5 -5 -5 -9t5 -4q14 1 41 2q125 1 191 4q-3 -20 -3 -46q0 -20 3 -42z" />
    <glyph glyph-name="florin" unicode="&#x192;" horiz-adv-x="543" 
d="M514 705q-4 -15 -10 -48q-1 -10 -4 -49q-24 6 -47 6q-33 0 -53 -32q-11 -18 -25 -62.5t-14 -63.5q0 -11 16 -11q11 0 92 3q-8 -33 -9 -63v-17q-84 4 -95 4q-18 0 -20 -19q-20 -127 -46 -300q-4 -30 -17 -76q-23 -81 -78 -111q-40 -22 -105 -22q-30 0 -61 6q9 30 11 71v24
q16 -3 35 -3q49 0 66.5 20.5t30.5 90.5q16 78 31 155q20 101 20 153q0 11 -14 11q-2 0 -74 -4q9 36 10 72v8q64 -3 74 -3q16 0 19 18q23 125 52 172q48 76 155 76q25 0 60 -6z" />
    <glyph glyph-name="circumflex" unicode="&#x2c6;" 
d="M291 562q-30 3 -53 3q-14 0 -44 -3q-14 22 -42 52q-1 1 -10 15q-5 9 -11 9t-12 -9q-8 -14 -9 -15q-29 -32 -42 -52q-18 3 -40 3q-28 0 -57 -3q39 52 102 142q28 -2 59 -2t57 2q42 -58 102 -142z" />
    <glyph glyph-name="caron" unicode="&#x2c7;" 
d="M291 704q-39 -52 -102 -142q-27 3 -57 3q-37 0 -59 -3q-42 58 -102 142q20 -2 52 -2q25 0 45 2q14 -22 42 -52q1 -1 10 -15q5 -9 11 -9t12 9q8 14 9 15q29 32 42 52q18 -3 39 -3q29 0 58 3z" />
    <glyph glyph-name="breve" unicode="&#x2d8;" 
d="M288 695q-13 -143 -157 -143q-141 0 -154 143q11 -2 28 -2q18 0 32 2q12 -69 94 -69q79 0 97 69q12 -2 29 -2q18 0 31 2z" />
    <glyph glyph-name="dotaccent" unicode="&#x2d9;" 
d="M194 553q-23 3 -57 3t-66 -3q2 18 2 57q0 41 -2 66q23 -2 65 -2q40 0 58 2q-2 -21 -2 -65q0 -41 2 -58z" />
    <glyph glyph-name="ring" unicode="&#x2da;" 
d="M231 649q0 -42 -29 -72t-70 -30q-40 0 -69 29t-29 73q0 42 28.5 71.5t69.5 29.5t70 -29.5t29 -71.5zM185 649q0 22 -15.5 38t-37.5 16q-21 0 -36 -16t-15 -39t15 -38.5t36 -15.5q22 0 37.5 16t15.5 39z" />
    <glyph glyph-name="ogonek" unicode="&#x2db;" 
d="M243 -155q-45 -16 -80 -16q-49 0 -81 20q-36 23 -36 63q0 68 90 96q72 -1 74 0v-8q-51 -29 -56 -32q-27 -21 -27 -49q0 -38 54 -38q16 0 57 10v-23q0 -3 2.5 -12.5t2.5 -10.5z" />
    <glyph glyph-name="tilde" unicode="&#x2dc;" 
d="M305 698l-1 -12q-4 -48 -29 -78q-27 -34 -71 -34q-29 0 -74.5 21.5t-64.5 21.5q-33 0 -41 -45q-15 3 -30 3q-14 0 -35 -3v13q0 46 31.5 78.5t72.5 32.5q30 0 74.5 -21.5t63.5 -21.5q31 0 40 45q19 -3 34 -3t30 3z" />
    <glyph glyph-name="hungarumlaut" unicode="&#x2dd;" 
d="M333 704q-92 -98 -123 -141q-26 3 -38 3q-20 0 -43 -3q30 49 83 141q24 -4 51 -4q29 0 70 4zM167 704q-89 -93 -122 -141q-20 3 -35 3q-19 0 -47 -3q31 51 83 141q23 -4 50 -4q29 0 71 4z" />
    <glyph glyph-name="endash" unicode="&#x2013;" horiz-adv-x="566" 
d="M532 217q-85 2 -251 2q-164 0 -247 -2q2 16 2 48q0 34 -2 54q127 -3 264 -3q135 0 234 3q-3 -25 -3 -53t3 -49z" />
    <glyph glyph-name="emdash" unicode="&#x2014;" horiz-adv-x="990" 
d="M956 217q-250 4 -493 4t-429 -4q2 15 2 50t-2 51q243 -3 469 -3q228 0 453 3q-2 -16 -2 -51t2 -50z" />
    <glyph glyph-name="quoteleft" unicode="&#x2018;" horiz-adv-x="226" 
d="M181 446q-34 3 -49 3q-19 0 -37 -2q-35 124 -50 262q19 -2 59 -2q38 0 56 2q0 -122 21 -263z" />
    <glyph glyph-name="quoteright" unicode="&#x2019;" horiz-adv-x="226" 
d="M181 709q-15 -138 -50 -262q-18 2 -37 2q-15 0 -49 -3q21 141 21 263q18 -2 56 -2q40 0 59 2z" />
    <glyph glyph-name="quotesinglbase" unicode="&#x201a;" horiz-adv-x="237" 
d="M182 128q-15 -139 -50 -263q-18 2 -37 2q-25 0 -48 -2q20 116 20 263q27 -3 57 -3q29 0 58 3z" />
    <glyph glyph-name="quotedblleft" unicode="&#x201c;" horiz-adv-x="420" 
d="M370 445q-28 3 -51 3t-34 -2q-36 138 -50 264q22 -3 54 -3q34 0 61 3q0 -110 20 -265zM204 445q-28 3 -51 3q-24 0 -35 -2q-54 140 -73 264q22 -3 54 -3q34 0 61 3q5 -103 44 -265z" />
    <glyph glyph-name="quotedblright" unicode="&#x201d;" horiz-adv-x="420" 
d="M375 710q-19 -124 -73 -264q-11 2 -35 2q-23 0 -51 -3q39 162 44 265q27 -3 61 -3q32 0 54 3zM185 710q-14 -126 -50 -264q-11 2 -34 2t-51 -3q20 155 20 265q27 -3 61 -3q32 0 54 3z" />
    <glyph glyph-name="quotedblbase" unicode="&#x201e;" horiz-adv-x="420" 
d="M368 128q-19 -126 -73 -265q-11 2 -35 2q-23 0 -51 -3q39 162 44 266q36 -4 61 -4t54 4zM178 128q-14 -127 -50 -265q-11 2 -34 2t-51 -3q20 155 20 266q36 -4 61 -4t54 4z" />
    <glyph glyph-name="dagger" unicode="&#x2020;" horiz-adv-x="538" 
d="M498 391q-87 12 -164 15q-5 0 -10.5 1t-6.5 1q-4 0 -4 -3q0 3 3 -15q13 -78 13 -107q0 -30 -5 -116q-14 -241 -15 -333q-21 3 -39 3q-22 0 -40 -3q-1 102 -15 333q-5 83 -5 114q0 26 13 109q3 19 3 15q0 3 -4 3q-1 0 -4.5 -1t-8.5 -1q-81 -2 -169 -15q6 33 6 57
q0 28 -5 61q96 -13 169 -16q5 0 9 -1.5t5 -1.5q3 0 3 5q0 2 -1 6.5t-1 9.5q-5 93 -18 196q34 -4 66 -4t58 4q-12 -110 -17 -194q0 -7 -1.5 -12t-1.5 -6q0 -5 4 -5l5 2.5t12 2.5q94 3 165 13q-5 -33 -5 -60q0 -23 6 -57z" />
    <glyph glyph-name="daggerdbl" unicode="&#x2021;" horiz-adv-x="538" 
d="M498 34q-95 13 -170 16q-5 0 -9 1.5t-5 1.5q-3 0 -3 -5q0 -2 1 -6.5t1 -9.5q5 -93 18 -196q-43 5 -66 5q-26 0 -58 -5q12 110 17 194q0 7 1.5 12t1.5 6q0 5 -3 5l-5.5 -2t-12.5 -2q-84 -3 -165 -14q5 33 5 60q0 23 -6 57q77 -11 164 -14q5 0 10.5 -1.5t6.5 -1.5q4 0 4 3
q0 1 -1.5 6t-1.5 9q-9 75 -9 126q0 36 10 111q3 23 3 15q0 3 -4 3q-1 0 -4.5 -1t-8.5 -1q-81 -2 -169 -15q6 33 6 57q0 28 -5 61q96 -13 169 -16q5 0 9 -1.5t5 -1.5q3 0 3 5q0 2 -1 6.5t-1 9.5q-5 93 -18 196q34 -4 66 -4t58 4q-12 -110 -17 -194q0 -7 -1.5 -12t-1.5 -6
q0 -5 4 -5l5 2.5t12 2.5q94 3 165 13q-5 -33 -5 -60q0 -23 6 -57q-87 12 -164 15q-5 0 -10.5 1t-6.5 1q-4 0 -4 -3q0 -1 1.5 -6t1.5 -9q10 -78 10 -121q0 -33 -11 -115q-3 -22 -3 -15q0 -4 4 -4q1 0 4.5 1.5t8.5 1.5q88 2 168 14q-5 -28 -5 -57q0 -21 6 -61z" />
    <glyph glyph-name="bullet" unicode="&#x2022;" horiz-adv-x="449" 
d="M348 357q0 -51 -36 -87t-87 -36t-87 36t-36 87q0 52 35.5 88.5t86.5 36.5t87.5 -36.5t36.5 -88.5z" />
    <glyph glyph-name="ellipsis" unicode="&#x2026;" horiz-adv-x="1001" 
d="M885 0q-29 5 -59 5q-28 0 -66 -5q4 31 4 63q0 30 -4 66q32 -3 63 -3t62 3q-2 -24 -2 -70q0 -41 2 -59zM560 0q-28 5 -58 5q-28 0 -67 -5q3 26 3 62q0 37 -3 67q42 -3 64 -3q20 0 61 3q-2 -23 -2 -67q0 -43 2 -62zM246 0q-30 5 -60 5q-27 0 -64 -5q3 29 3 62t-3 67
q29 -3 57 -3q25 0 67 3q-3 -32 -3 -68q0 -37 3 -61z" />
    <glyph glyph-name="perthousand" unicode="&#x2030;" horiz-adv-x="1083" 
d="M1047 179q0 -87 -35 -137q-37 -53 -110 -53q-72 0 -110 53q-35 49 -35 135q0 90 35 140q37 55 109 55q73 0 111 -54q35 -50 35 -139zM717 180q0 -87 -35 -137q-38 -53 -110 -53q-73 0 -110 52q-36 49 -36 135q0 89 36.5 142.5t108.5 53.5q73 0 111 -54q35 -50 35 -139z
M612 695q-183 -319 -384 -700q-36 10 -83 0q144 251 384 700q45 -7 83 0zM329 504q0 -189 -144 -189q-72 0 -110 53q-36 49 -36 135q0 89 36 141.5t108 52.5q73 0 111 -54q35 -50 35 -139zM959 177q0 64 -8 89q-12 39 -49 39q-58 0 -58 -123q0 -124 58 -124q31 0 44 27.5
t13 91.5zM628 178q0 64 -8 89q-12 39 -49 39q-58 0 -58 -123q0 -124 59 -124q31 0 43.5 27.5t12.5 91.5zM242 502q0 70 -13 99t-45 29q-57 0 -57 -122q0 -124 58 -124q31 0 44 27t13 91z" />
    <glyph glyph-name="guilsinglleft" unicode="&#x2039;" horiz-adv-x="287" 
d="M245 93q-30 3 -51 3q-12 0 -54 -3q-39 75 -98 170q45 68 97 170q13 -1 51 -1q43 0 55 1q-52 -82 -83 -142q-1 -1 -9.5 -12.5t-8.5 -16.5q0 -6 8 -15q11 -12 12 -15q34 -66 81 -139z" />
    <glyph glyph-name="guilsinglright" unicode="&#x203a;" horiz-adv-x="287" 
d="M245 263q-49 -75 -98 -170q-25 2 -50 2q-31 0 -55 -2q49 78 83 143q1 1 10 14q7 9 7 14q0 6 -9 17.5t-10 13.5q-36 69 -80 138q20 -2 51 -2q26 0 54 2q44 -85 97 -170z" />
    <glyph glyph-name="fraction" unicode="&#x2044;" horiz-adv-x="125" 
d="M289 685q-188 -327 -377 -694q-12 4 -33 4q-30 0 -40 -4q197 348 376 693q12 -2 34 -2q24 0 40 3z" />
    <glyph glyph-name="Euro" unicode="&#x20ac;" horiz-adv-x="562" 
d="M528 179q-19 -189 -215 -189q-102 0 -164 63q-57 58 -71 158q-2 16 -11 16t-25 -2q-20 -2 -25 -2q3 23 3 42q0 17 -3 40q46 -3 43 -3q9 0 9 5q0 4 -1 14.5t-1 16.5q0 7 1 20t1 18q0 4 -9 4q-6 0 -43 -2q3 23 3 41q0 17 -3 40q36 -3 47 -3q9 0 11 6.5t3 13.5
q42 224 240 224q140 0 201 -80q-27 -37 -51 -96q-49 79 -145 79q-106 0 -128 -126q-3 -17 -3 -15q0 -7 17 -7h45q119 0 182 3q-22 -34 -38 -80q-82 2 -166 2h-31q-13 0 -15 -4.5t-2 -20.5v-32q0 -15 2 -18t15 -3h31q48 0 128 2q-20 -34 -35 -81q-98 3 -92 3h-25
q-15 0 -15 -7q0 2 3 -13q25 -126 119 -126q55 0 80 28q20 23 25 74q19 -6 65 -6q29 0 43 3z" />
    <glyph glyph-name="trademark" unicode="&#x2122;" horiz-adv-x="636" 
d="M592 400q-16 3 -30 3q-12 0 -32 -4q2 68 2 160v27q0 3 1 12t1 12q0 6 -4 6l-7 -20q-40 -119 -61 -196q-18 2 -28 2t-26 -2q-27 103 -59 197q-6 18 -7 18q-3 0 -3 -5q0 -2 1 -12v-12v-30q0 -123 1 -157q-20 4 -29 4q-14 0 -30 -3q3 84 3 138q0 48 -3 157q19 -2 44 -2
q24 0 46 2q17 -62 56 -176q1 -2 4 -18q2 -10 5 -10t5 10q3 15 4 18q31 88 55 176q34 -2 47 -2q17 0 44 2q-2 -63 -2 -145q0 -83 2 -150zM251 641q-46 2 -66 2q-11 0 -11 -11v-97q0 -55 1 -135q-20 2 -31 2t-34 -2q2 78 2 135v98q0 10 -11 10q-52 0 -66 -2q2 18 2 27
q0 8 -2 27q60 -2 115 -2q56 0 101 2q-2 -16 -2 -28t2 -26z" />
    <glyph glyph-name="notequal" unicode="&#x2260;" horiz-adv-x="584" 
 />
    <glyph glyph-name="fi" unicode="&#xf001;" horiz-adv-x="570" 
d="M490 591q-18 3 -57 3q-40 0 -63 -3q2 18 2 60q0 41 -2 58q30 -2 63 -2q34 0 57 2q-3 -26 -3 -60q0 -31 3 -58zM489 0q-30 5 -58 5q-33 0 -61 -5q2 66 2 247q0 194 -2 254q35 -6 60 -6q24 0 59 6q-4 -152 -4 -254q0 -114 4 -247zM321 660q0 -30 -3 -50q-27 8 -47 8
q-41 0 -53 -37q-6 -18 -6 -71q0 -13 11 -13q50 0 91 3q-3 -26 -3 -45q0 -20 3 -42q-63 2 -91 2q-11 0 -11 -14q0 -34 2 -203l2 -198q-27 5 -58 5t-59 -5q2 82 2 215q0 45 -1 191q0 9 -11 9q-32 0 -68 -2q4 29 4 44q0 17 -4 43q38 -3 67 -3q11 0 11 13v23q-1 17 -1 19
q0 82 34.5 121.5t108.5 39.5q53 0 77 -13q3 -16 3 -40z" />
    <glyph glyph-name="fl" unicode="&#xf002;" horiz-adv-x="570" 
d="M497 0q-27 5 -56 5q-27 0 -64 -5q3 156 3 336t-3 373q23 -3 63 -3q31 0 57 3q-2 -134 -2 -378q0 -231 2 -331zM321 660q0 -30 -3 -50q-27 8 -47 8q-41 0 -53 -37q-6 -18 -6 -71q0 -13 11 -13q50 0 91 3q-3 -26 -3 -45q0 -20 3 -42q-63 2 -91 2q-11 0 -11 -14
q0 -34 2 -203l2 -198q-27 5 -58 5t-59 -5q2 82 2 215q0 45 -1 191q0 9 -11 9q-32 0 -68 -2q4 29 4 44q0 17 -4 43q38 -3 67 -3q11 0 11 13v23q-1 17 -1 19q0 82 34.5 121.5t108.5 39.5q53 0 77 -13q3 -16 3 -40z" />
    </font>
</defs>
</svg>
